<svg width="310" height="520" viewBox="0 0 310 520" fill="none" xmlns="http://www.w3.org/2000/svg">
<rect width="310" height="520" rx="20" fill="#F7F7F7"/>
<path d="M23 62H39" stroke="#130505" stroke-width="1.5" stroke-linecap="round"/>
<path d="M32.8881 43.6629L33.6296 42.9214C34.8581 41.6929 36.85 41.6929 38.0786 42.9214C39.3071 44.15 39.3071 46.1419 38.0786 47.3704L37.3371 48.1119M32.8881 43.6629C32.8881 43.6629 32.9807 45.2386 34.3711 46.6289C35.7614 48.0193 37.3371 48.1119 37.3371 48.1119M32.8881 43.6629L26.0711 50.4799C25.6093 50.9416 25.3785 51.1725 25.1799 51.4271C24.9457 51.7273 24.7449 52.0522 24.5811 52.396C24.4422 52.6874 24.3389 52.9972 24.1324 53.6167L23.2574 56.2417M37.3371 48.1119L30.5201 54.9289C30.0584 55.3907 29.8275 55.6215 29.5729 55.8201C29.2727 56.0543 28.9478 56.2551 28.604 56.4189C28.3126 56.5578 28.0028 56.6611 27.3833 56.8675L24.7583 57.7426M24.7583 57.7426L24.1167 57.9564C23.8118 58.0581 23.4757 57.9787 23.2485 57.7515C23.0213 57.5243 22.9419 57.1882 23.0436 56.8833L23.2574 56.2417M24.7583 57.7426L23.2574 56.2417" stroke="#130505" stroke-width="1.5"/>
<path d="M166.706 41.164C167.09 41.2493 167.394 41.436 167.618 41.724C167.853 42.0013 167.97 42.332 167.97 42.716V43.244C167.97 43.7987 167.831 44.3107 167.554 44.78C167.277 45.26 166.903 45.6387 166.434 45.916C165.965 46.1933 165.453 46.332 164.898 46.332H161.682C161.074 46.332 160.509 46.1773 159.986 45.868C159.463 45.5587 159.047 45.1427 158.738 44.62C158.439 44.0973 158.29 43.532 158.29 42.924V39.26H159.714V42.716C159.714 43.2493 159.901 43.7027 160.274 44.076C160.658 44.4493 161.117 44.636 161.65 44.636H165.09C165.506 44.636 165.847 44.4867 166.114 44.188C166.391 43.9 166.53 43.5427 166.53 43.116V42.588L162.114 41.532V39.756C162.114 39.2333 162.231 38.748 162.466 38.3C162.701 37.852 163.021 37.484 163.426 37.196C163.842 36.908 164.306 36.732 164.818 36.668L166.866 36.396L167.042 37.852L164.77 38.156C164.397 38.2093 164.093 38.38 163.858 38.668C163.623 38.9453 163.506 39.2707 163.506 39.644V40.396L166.706 41.164ZM178.329 41.82C178.393 41.82 178.446 41.8467 178.489 41.9C178.531 41.9427 178.553 41.996 178.553 42.06V43.276C178.553 43.34 178.531 43.3933 178.489 43.436C178.457 43.4787 178.403 43.5 178.329 43.5H178.025C177.609 43.5 177.219 43.388 176.857 43.164C176.505 42.9293 176.222 42.6147 176.009 42.22C175.859 42.6253 175.603 42.94 175.241 43.164C174.889 43.388 174.505 43.5 174.089 43.5H171.929C171.406 43.5 170.958 43.3133 170.585 42.94C170.211 42.556 170.025 42.1027 170.025 41.58V39.676H171.225V41.244C171.225 41.404 171.273 41.5427 171.369 41.66C171.475 41.7667 171.609 41.82 171.769 41.82H174.105C174.435 41.82 174.713 41.708 174.937 41.484C175.171 41.2493 175.289 40.9773 175.289 40.668C175.289 40.54 175.278 40.444 175.257 40.38L174.009 35.916L175.385 35.452L176.905 40.86C176.99 41.1587 177.118 41.3933 177.289 41.564C177.459 41.7347 177.673 41.82 177.929 41.82H178.329ZM178.328 43.5C178.264 43.5 178.211 43.484 178.168 43.452C178.125 43.4093 178.104 43.3507 178.104 43.276V42.06C178.104 41.996 178.131 41.9427 178.184 41.9C178.227 41.8467 178.275 41.82 178.328 41.82H179.528C180.115 41.82 180.472 41.532 180.6 40.956L181.16 38.22L182.552 38.492L182.104 40.748C182.093 40.7907 182.088 40.86 182.088 40.956C182.088 41.212 182.173 41.42 182.344 41.58C182.515 41.74 182.739 41.82 183.016 41.82H184.104C184.168 41.82 184.221 41.8467 184.264 41.9C184.307 41.9427 184.328 41.996 184.328 42.06V43.276C184.328 43.34 184.307 43.3933 184.264 43.436C184.221 43.4787 184.168 43.5 184.104 43.5H183C182.616 43.5 182.269 43.4147 181.96 43.244C181.661 43.0733 181.437 42.828 181.288 42.508C181.117 42.8173 180.861 43.0627 180.52 43.244C180.179 43.4147 179.821 43.5 179.448 43.5H178.328ZM181.64 45.42H183.224V47.02H181.64V45.42ZM179.208 45.42H180.792V47.02H179.208V45.42ZM184.109 43.5C184.045 43.5 183.992 43.484 183.949 43.452C183.907 43.4093 183.885 43.3507 183.885 43.276V42.06C183.885 41.996 183.912 41.9427 183.965 41.9C184.008 41.8467 184.056 41.82 184.109 41.82H185.309C185.896 41.82 186.253 41.532 186.381 40.956L186.941 38.22L188.333 38.492L187.885 40.748C187.875 40.7907 187.869 40.86 187.869 40.956C187.869 41.212 187.955 41.42 188.125 41.58C188.296 41.74 188.52 41.82 188.797 41.82H189.885C189.949 41.82 190.003 41.8467 190.045 41.9C190.088 41.9427 190.109 41.996 190.109 42.06V43.276C190.109 43.34 190.088 43.3933 190.045 43.436C190.003 43.4787 189.949 43.5 189.885 43.5H188.781C188.397 43.5 188.051 43.4147 187.741 43.244C187.443 43.0733 187.219 42.828 187.069 42.508C186.899 42.8173 186.643 43.0627 186.301 43.244C185.96 43.4147 185.603 43.5 185.229 43.5H184.109ZM186.429 34.972H188.013V36.556H186.429V34.972ZM189.891 43.5C189.741 43.5 189.667 43.4253 189.667 43.276V42.044C189.667 41.9907 189.693 41.9427 189.747 41.9C189.789 41.8467 189.837 41.82 189.891 41.82H192.643C193.197 41.82 193.672 41.756 194.067 41.628C194.461 41.5 194.856 41.2387 195.251 40.844L196.259 39.868C196.301 39.8253 196.376 39.756 196.483 39.66C196.589 39.564 196.669 39.5 196.723 39.468L193.075 38.38C193.043 38.3693 192.989 38.364 192.915 38.364C192.787 38.364 192.669 38.4067 192.563 38.492C192.456 38.5667 192.387 38.6627 192.355 38.78L191.859 40.188L190.627 39.852L191.027 38.492C191.155 38.0333 191.405 37.6707 191.779 37.404C192.163 37.1267 192.584 36.988 193.043 36.988C193.277 36.988 193.475 37.0147 193.635 37.068L199.907 38.956L199.507 40.284L198.787 40.076C198.573 40.0227 198.424 39.996 198.339 39.996C198.211 39.996 198.088 40.028 197.971 40.092C197.864 40.156 197.715 40.2787 197.523 40.46L195.683 42.252C195.267 42.668 194.771 42.9827 194.195 43.196C193.619 43.3987 193.016 43.5 192.387 43.5H189.891ZM194.275 45.404H195.859L195.875 47.02H194.275V45.404ZM206.18 43.5C205.7 43.5 205.257 43.3827 204.852 43.148C204.447 42.9133 204.127 42.5987 203.892 42.204C203.657 41.7987 203.54 41.356 203.54 40.876V32.748H204.98V40.844C204.98 41.1213 205.071 41.356 205.252 41.548C205.433 41.7293 205.657 41.82 205.924 41.82H206.724C206.788 41.82 206.841 41.8467 206.884 41.9C206.927 41.9427 206.948 41.996 206.948 42.06V43.276C206.948 43.4253 206.873 43.5 206.724 43.5H206.18ZM206.719 43.5C206.569 43.5 206.495 43.4253 206.495 43.276V42.044C206.495 41.8947 206.569 41.82 206.719 41.82H207.343C207.609 41.82 207.833 41.724 208.015 41.532C208.196 41.34 208.287 41.1107 208.287 40.844V38.284H209.727V40.14C209.727 40.3533 209.759 40.54 209.823 40.7C209.897 40.86 209.983 40.972 210.079 41.036L212.399 38.524C212.729 38.1827 213.108 37.916 213.535 37.724C213.972 37.532 214.431 37.436 214.911 37.436H215.903C216.34 37.436 216.745 37.548 217.119 37.772C217.492 37.9853 217.785 38.2787 217.999 38.652C218.223 39.0253 218.335 39.436 218.335 39.884V41.004C218.335 41.4413 218.217 41.852 217.983 42.236C217.748 42.62 217.433 42.9293 217.039 43.164C216.644 43.388 216.217 43.5 215.759 43.5H211.711C211.263 43.5 210.777 43.3933 210.255 43.18C209.732 42.956 209.348 42.604 209.103 42.124C208.953 42.5613 208.681 42.9027 208.287 43.148C207.903 43.3827 207.497 43.5 207.071 43.5H206.719ZM216.015 41.82C216.26 41.82 216.468 41.7293 216.639 41.548C216.82 41.3667 216.911 41.148 216.911 40.892V39.98C216.911 39.7133 216.82 39.4947 216.639 39.324C216.457 39.1427 216.233 39.052 215.967 39.052H214.687C214.068 39.052 213.556 39.276 213.151 39.724L211.263 41.772C211.423 41.804 211.583 41.82 211.743 41.82H216.015ZM214.495 34.172H216.079V35.756H214.495V34.172ZM216.985 46.172L219.049 45.5C219.518 45.3293 219.881 45.0733 220.137 44.732C220.404 44.4013 220.537 43.9853 220.537 43.484V38.188H221.977V43.34C221.977 44.172 221.748 44.892 221.289 45.5C220.83 46.1187 220.217 46.5613 219.449 46.828L217.417 47.532L216.985 46.172Z" fill="#130505"/>
<path opacity="0.4" d="M144.29 66.348C144.645 66.348 144.976 66.4413 145.284 66.628C145.592 66.8053 145.835 67.048 146.012 67.356C146.199 67.664 146.292 68 146.292 68.364V68.798C146.292 69.1527 146.199 69.484 146.012 69.792C145.835 70.0907 145.592 70.3287 145.284 70.506C144.985 70.6833 144.654 70.772 144.29 70.772H143.898C143.534 70.772 143.198 70.6833 142.89 70.506C142.591 70.3287 142.349 70.0907 142.162 69.792C141.985 69.484 141.896 69.1527 141.896 68.798V68.364C141.896 68 141.985 67.664 142.162 67.356C142.339 67.048 142.582 66.8053 142.89 66.628C143.198 66.4413 143.534 66.348 143.898 66.348H144.29ZM145.298 68.336C145.298 68.0747 145.214 67.86 145.046 67.692C144.878 67.524 144.663 67.44 144.402 67.44H143.8C143.539 67.44 143.319 67.524 143.142 67.692C142.974 67.86 142.89 68.0747 142.89 68.336V68.784C142.89 69.0267 142.979 69.2367 143.156 69.414C143.333 69.582 143.548 69.666 143.8 69.666H144.402C144.663 69.666 144.878 69.582 145.046 69.414C145.214 69.2367 145.298 69.0267 145.298 68.784V68.336ZM151.957 71.724C151.798 70.7627 151.686 69.946 151.621 69.274C151.556 68.5927 151.518 67.79 151.509 66.866L152.545 66.32V66.67C152.545 67.5567 152.582 68.3453 152.657 69.036C152.741 69.7173 152.867 70.5153 153.035 71.43L151.957 71.724ZM149.325 67.888C148.793 67.888 148.345 67.7013 147.981 67.328C147.626 66.9547 147.449 66.4927 147.449 65.942C147.449 65.886 147.458 65.7833 147.477 65.634L147.799 63.604C147.864 63.1653 148.074 62.806 148.429 62.526C148.784 62.2367 149.19 62.092 149.647 62.092H150.543C150.907 62.092 151.243 62.1807 151.551 62.358C151.859 62.5353 152.102 62.778 152.279 63.086C152.456 63.3847 152.545 63.716 152.545 64.08V67.062L151.551 67.762C151.299 67.846 151.01 67.888 150.683 67.888H149.325ZM151.509 66.67V64.08C151.509 63.8373 151.425 63.6367 151.257 63.478C151.098 63.3193 150.898 63.24 150.655 63.24H149.605C149.4 63.24 149.222 63.3007 149.073 63.422C148.924 63.5433 148.83 63.702 148.793 63.898L148.499 65.76C148.49 65.788 148.485 65.8347 148.485 65.9C148.485 66.1053 148.555 66.2873 148.695 66.446C148.844 66.5953 149.022 66.67 149.227 66.67H151.509ZM154.919 67.034C154.919 66.1473 154.877 65.368 154.793 64.696C154.718 64.0147 154.597 63.2073 154.429 62.274L155.507 61.924C155.665 62.932 155.777 63.772 155.843 64.444C155.917 65.116 155.955 65.9187 155.955 66.852V71.514H154.919V67.034ZM160.429 66.796C159.804 66.796 159.356 66.6 159.085 66.208C158.815 65.816 158.619 65.2747 158.497 64.584L159.085 64.15C159.151 64.6447 159.258 65.004 159.407 65.228C159.566 65.452 159.846 65.564 160.247 65.564H162.417V62.232H163.453V65.13C163.453 65.6527 163.318 66.0633 163.047 66.362C162.777 66.6513 162.38 66.796 161.857 66.796H160.429ZM158.175 67.034C158.175 66.1473 158.133 65.368 158.049 64.696C157.975 64.0147 157.853 63.2073 157.685 62.274L158.777 61.924C158.936 62.96 159.048 63.8093 159.113 64.472C159.179 65.1347 159.211 65.928 159.211 66.852V71.514H158.175V67.034ZM167.744 66.796C167.128 66.7867 166.684 66.586 166.414 66.194C166.143 65.802 165.947 65.2653 165.826 64.584L166.414 64.15C166.479 64.6447 166.586 65.004 166.736 65.228C166.894 65.452 167.174 65.564 167.576 65.564H167.772C168.07 65.564 168.308 65.4893 168.486 65.34C168.663 65.1813 168.78 64.9713 168.836 64.71L169.284 62.428L170.32 62.624L169.956 64.5C169.946 64.5467 169.942 64.6073 169.942 64.682C169.942 64.934 170.026 65.144 170.194 65.312C170.371 65.48 170.595 65.564 170.866 65.564H172.126V62.232H173.148V65.13C173.148 65.6527 173.017 66.0633 172.756 66.362C172.494 66.6513 172.102 66.796 171.579 66.796H170.866C170.138 66.796 169.634 66.488 169.354 65.872C169.186 66.1707 168.957 66.3993 168.668 66.558C168.388 66.7167 168.08 66.796 167.744 66.796ZM165.504 67.034C165.504 66.1473 165.462 65.368 165.378 64.696C165.303 64.0147 165.182 63.2073 165.014 62.274L166.106 61.924C166.264 62.96 166.376 63.8093 166.442 64.472C166.507 65.1347 166.54 65.928 166.54 66.852V71.514H165.504V67.034ZM177.507 67.636C176.881 67.636 176.424 67.4353 176.135 67.034C175.855 66.6233 175.673 66.0867 175.589 65.424L176.177 64.99C176.223 65.4753 176.326 65.8347 176.485 66.068C176.653 66.292 176.937 66.404 177.339 66.404C178.263 66.404 179.789 66.292 181.917 66.068L182.043 67.174C181.025 67.314 180.143 67.426 179.397 67.51C178.65 67.594 178.02 67.636 177.507 67.636ZM178.025 66.432C177.95 66.3013 177.889 66.1753 177.843 66.054C177.805 65.9327 177.773 65.7787 177.745 65.592L177.521 64.22C177.511 64.1453 177.507 64.0427 177.507 63.912C177.507 63.3613 177.684 62.9087 178.039 62.554C178.403 62.19 178.851 62.008 179.383 62.008H181.469V63.142H179.299C179.056 63.142 178.86 63.2353 178.711 63.422C178.561 63.6087 178.505 63.828 178.543 64.08L178.921 66.39L178.025 66.432ZM175.211 67.034C175.211 66.1473 175.169 65.368 175.085 64.696C175.01 64.0147 174.889 63.2073 174.721 62.274L175.813 61.924C175.971 62.96 176.083 63.8093 176.149 64.472C176.214 65.1347 176.247 65.928 176.247 66.852V71.514H175.211V67.034ZM189.03 71.598C188.367 71.598 187.896 71.402 187.616 71.01C187.345 70.618 187.21 70.1093 187.21 69.484C187.21 69.2413 187.224 69.008 187.252 68.784L187.728 68.546C187.69 68.7607 187.672 68.9707 187.672 69.176C187.672 69.568 187.76 69.8573 187.938 70.044C188.115 70.2213 188.39 70.31 188.764 70.31H189.002C189.375 70.31 189.66 70.1793 189.856 69.918C190.052 69.6473 190.15 69.2973 190.15 68.868C190.15 68.028 189.772 67.09 189.016 66.054C188.269 65.0087 187.196 63.7767 185.796 62.358L186.524 61.546C186.888 61.938 187.07 62.134 187.07 62.134C187.938 63.0393 188.642 63.8233 189.184 64.486C189.734 65.1393 190.201 65.8533 190.584 66.628C190.976 67.3933 191.172 68.1633 191.172 68.938C191.172 69.6753 190.99 70.3053 190.626 70.828C190.271 71.3413 189.739 71.598 189.03 71.598ZM185.376 71.598C184.676 71.598 184.148 71.36 183.794 70.884C183.439 70.408 183.262 69.82 183.262 69.12C183.262 68.1213 183.584 67.0853 184.228 66.012C184.48 65.6013 184.769 65.1813 185.096 64.752C185.432 64.3227 185.847 63.8093 186.342 63.212C186.51 62.9973 186.687 62.778 186.874 62.554L187.63 63.142L187.266 63.576C186.64 64.3227 186.178 64.8827 185.88 65.256C185.59 65.62 185.343 65.97 185.138 66.306C184.54 67.2487 184.242 68.084 184.242 68.812C184.242 69.2507 184.335 69.61 184.522 69.89C184.718 70.17 185.007 70.31 185.39 70.31H185.516C185.861 70.31 186.127 70.2353 186.314 70.086C186.5 69.9273 186.636 69.638 186.72 69.218L186.972 67.776L187.854 67.944L187.63 69.176C187.508 69.9227 187.284 70.5153 186.958 70.954C186.64 71.3833 186.113 71.598 185.376 71.598ZM192.7 71.192L195.318 67.496C195.869 66.7307 196.373 66.0867 196.83 65.564C197.287 65.032 197.857 64.4207 198.538 63.73L199.28 64.514C198.627 65.1487 198.067 65.7273 197.6 66.25C197.143 66.7727 196.653 67.4027 196.13 68.14L193.554 71.78L192.7 71.192ZM195.346 67.496C195.281 67.4587 195.173 67.412 195.024 67.356C194.884 67.2907 194.739 67.188 194.59 67.048L193.386 66.012C193.153 65.8067 192.975 65.578 192.854 65.326C192.733 65.0647 192.672 64.7987 192.672 64.528C192.672 64.2573 192.728 64.0007 192.84 63.758C192.961 63.506 193.129 63.2867 193.344 63.1L194.912 61.714L195.612 62.484L193.988 63.912C193.801 64.0707 193.708 64.2667 193.708 64.5C193.708 64.7427 193.806 64.948 194.002 65.116L195.92 66.74L195.346 67.496ZM201.823 67.006C201.599 66.222 201.365 65.5453 201.123 64.976C200.889 64.4067 200.581 63.7393 200.199 62.974L199.947 62.47L200.927 61.854L201.249 62.526C201.631 63.3473 201.935 64.038 202.159 64.598C202.383 65.1487 202.588 65.7787 202.775 66.488L204.091 71.458L203.125 71.64L201.823 67.006ZM203.307 71.626V71.122L204.609 66.516C204.833 65.732 205.066 65.046 205.309 64.458C205.551 63.8607 205.841 63.2073 206.177 62.498C206.205 62.4233 206.298 62.218 206.457 61.882L207.339 62.47C206.853 63.4313 206.48 64.22 206.219 64.836C205.957 65.452 205.701 66.1753 205.449 67.006L204.063 71.57L203.307 71.626ZM213.474 66.684C213.689 67.4773 213.913 68.154 214.146 68.714C214.389 69.2647 214.72 69.9647 215.14 70.814L215.35 71.22L214.37 71.836C214.333 71.7707 214.296 71.696 214.258 71.612C214.221 71.528 214.179 71.4393 214.132 71.346C213.703 70.4313 213.376 69.6987 213.152 69.148C212.928 68.5973 212.718 67.9487 212.522 67.202L211.206 62.232L212.172 62.05L213.474 66.684ZM211.99 62.064V62.568L210.674 67.174C210.46 67.9487 210.236 68.616 210.002 69.176C209.778 69.736 209.48 70.4173 209.106 71.22L208.826 71.808L207.958 71.22C208.462 70.2027 208.84 69.4 209.092 68.812C209.344 68.2147 209.596 67.5053 209.848 66.684L211.22 62.12L211.99 62.064ZM220.576 71.724C220.417 70.7627 220.305 69.946 220.24 69.274C220.175 68.5927 220.137 67.79 220.128 66.866L221.164 66.32V66.67C221.164 67.5567 221.201 68.3453 221.276 69.036C221.36 69.7173 221.486 70.5153 221.654 71.43L220.576 71.724ZM217.944 67.888C217.412 67.888 216.964 67.7013 216.6 67.328C216.245 66.9547 216.068 66.4927 216.068 65.942C216.068 65.886 216.077 65.7833 216.096 65.634L216.418 63.604C216.483 63.1653 216.693 62.806 217.048 62.526C217.403 62.2367 217.809 62.092 218.266 62.092H219.162C219.526 62.092 219.862 62.1807 220.17 62.358C220.478 62.5353 220.721 62.778 220.898 63.086C221.075 63.3847 221.164 63.716 221.164 64.08V67.062L220.17 67.762C219.918 67.846 219.629 67.888 219.302 67.888H217.944ZM220.128 66.67V64.08C220.128 63.8373 220.044 63.6367 219.876 63.478C219.717 63.3193 219.517 63.24 219.274 63.24H218.224C218.019 63.24 217.841 63.3007 217.692 63.422C217.543 63.5433 217.449 63.702 217.412 63.898L217.118 65.76C217.109 65.788 217.104 65.8347 217.104 65.9C217.104 66.1053 217.174 66.2873 217.314 66.446C217.463 66.5953 217.641 66.67 217.846 66.67H220.128Z" fill="#130505"/>
<rect x="235" y="24" width="56" height="56" rx="12" fill="white"/>
<circle cx="4.66667" cy="4.66667" r="4.66667" transform="matrix(-1 0 0 1 267.668 41.5)" stroke="#171717" stroke-width="1.75"/>
<path d="M254.832 57.7565C254.832 56.7527 255.463 55.8573 256.408 55.5197C260.67 53.9977 265.327 53.9977 269.589 55.5197C270.534 55.8573 271.165 56.7527 271.165 57.7565V59.2912C271.165 60.6766 269.938 61.7407 268.567 61.5448L267.453 61.3857C264.499 60.9636 261.499 60.9636 258.544 61.3857L257.43 61.5448C256.059 61.7407 254.832 60.6766 254.832 59.2912V57.7565Z" stroke="#171717" stroke-width="1.75"/>
<line x1="19.75" y1="95.25" x2="290.25" y2="95.25" stroke="#E6E6E6" stroke-width="1.5" stroke-linecap="round"/>
<path d="M19 138C19 123.641 30.6406 112 45 112H265C279.359 112 291 123.641 291 138C291 152.359 279.359 164 265 164H45C30.6406 164 19 152.359 19 138Z" fill="#2F0D0C"/>
<path d="M153.226 138.424C153.226 138.648 153.291 138.825 153.422 138.956C153.562 139.077 153.758 139.138 154.01 139.138H154.388C154.481 139.138 154.528 139.46 154.528 140.104C154.528 140.701 154.481 141 154.388 141H154.066C153.683 141 153.403 140.935 153.226 140.804C153.198 141.495 153.016 142.106 152.68 142.638C152.344 143.179 151.882 143.599 151.294 143.898C150.715 144.197 150.048 144.346 149.292 144.346H148.732C147.519 144.346 146.581 143.996 145.918 143.296C145.265 142.605 144.938 141.635 144.938 140.384V137.584H146.716V140.342C146.716 141.051 146.879 141.583 147.206 141.938C147.533 142.302 148.041 142.484 148.732 142.484H149.292C149.964 142.484 150.491 142.307 150.874 141.952C151.257 141.597 151.448 141.107 151.448 140.482V136.184H153.226V138.424ZM147.822 135.974V134.378H149.726V135.974H147.822ZM154.755 139.138C155.016 139.138 155.198 139.087 155.301 138.984C155.413 138.881 155.469 138.713 155.469 138.48V138.088C155.469 137.183 155.725 136.469 156.239 135.946C156.761 135.414 157.466 135.148 158.353 135.148C159.239 135.148 159.916 135.405 160.383 135.918C160.859 136.422 161.097 137.15 161.097 138.102C161.097 139.017 160.849 139.731 160.355 140.244C159.86 140.748 159.169 141 158.283 141C157.816 141 157.429 140.944 157.121 140.832C156.813 140.711 156.584 140.543 156.435 140.328C156.257 140.561 156.033 140.734 155.763 140.846C155.501 140.949 155.165 141 154.755 141H154.391C154.297 141 154.251 140.701 154.251 140.104C154.251 139.46 154.297 139.138 154.391 139.138H154.755ZM159.333 138.102C159.333 137.318 158.983 136.926 158.283 136.926C157.583 136.926 157.233 137.318 157.233 138.102C157.233 138.438 157.317 138.699 157.485 138.886C157.662 139.063 157.928 139.152 158.283 139.152C158.637 139.152 158.899 139.068 159.067 138.9C159.244 138.723 159.333 138.457 159.333 138.102ZM173.061 141.056C173.061 140.86 172.996 140.715 172.865 140.622C172.744 140.519 172.571 140.468 172.347 140.468H169.673V137.724C169.673 136.893 169.92 136.221 170.415 135.708C170.919 135.195 171.586 134.938 172.417 134.938H174.321L174.433 136.744H172.431C172.142 136.744 171.908 136.833 171.731 137.01C171.554 137.178 171.465 137.407 171.465 137.696V138.606H172.641C173.406 138.606 173.962 138.807 174.307 139.208C174.662 139.609 174.839 140.188 174.839 140.944C174.839 141.56 174.666 142.125 174.321 142.638C173.985 143.161 173.514 143.576 172.907 143.884C172.31 144.192 171.642 144.346 170.905 144.346H169.855C168.642 144.346 167.704 143.996 167.041 143.296C166.388 142.605 166.061 141.635 166.061 140.384V137.584H167.839V140.342C167.839 141.051 168.002 141.583 168.329 141.938C168.656 142.302 169.164 142.484 169.855 142.484H170.919C171.61 142.484 172.137 142.353 172.501 142.092C172.874 141.84 173.061 141.495 173.061 141.056ZM179.735 139.138C179.782 139.138 179.815 139.199 179.833 139.32C179.861 139.441 179.875 139.703 179.875 140.104C179.875 140.477 179.861 140.72 179.833 140.832C179.815 140.944 179.782 141 179.735 141H179.231C178.447 141 177.85 140.776 177.439 140.328C177.038 139.871 176.837 139.222 176.837 138.382V131.984H178.629V138.256C178.629 138.555 178.685 138.779 178.797 138.928C178.919 139.068 179.105 139.138 179.357 139.138H179.735ZM188.586 136.576C188.922 136.94 189.165 137.295 189.314 137.64C189.473 137.985 189.552 138.345 189.552 138.718C189.552 139.399 189.314 139.95 188.838 140.37C188.372 140.79 187.737 141 186.934 141H185.366C184.778 141 184.354 140.986 184.092 140.958C183.831 140.921 183.612 140.846 183.434 140.734C183.248 140.837 183 140.907 182.692 140.944C182.394 140.981 181.988 141 181.474 141H179.738C179.645 141 179.598 140.701 179.598 140.104C179.598 139.46 179.645 139.138 179.738 139.138H181.208C181.078 138.961 180.97 138.746 180.886 138.494C180.802 138.242 180.76 137.99 180.76 137.738C180.76 137.215 180.882 136.739 181.124 136.31C181.367 135.881 181.703 135.545 182.132 135.302C182.562 135.059 183.042 134.938 183.574 134.938C184.05 134.938 184.489 135.05 184.89 135.274L184.498 134.868L185.772 133.552L188.586 136.576ZM186.906 139.138C187.466 139.138 187.746 138.961 187.746 138.606C187.746 138.475 187.709 138.349 187.634 138.228C187.569 138.097 187.434 137.92 187.228 137.696L185.94 136.352C186.136 136.763 186.234 137.178 186.234 137.598C186.234 137.897 186.174 138.186 186.052 138.466C185.94 138.746 185.786 138.97 185.59 139.138H186.906ZM183.434 139.138C184.172 138.802 184.54 138.34 184.54 137.752C184.54 137.453 184.447 137.206 184.26 137.01C184.074 136.805 183.822 136.702 183.504 136.702C183.187 136.702 182.93 136.805 182.734 137.01C182.548 137.206 182.454 137.453 182.454 137.752C182.454 138.34 182.781 138.802 183.434 139.138ZM206.483 138.298C206.483 138.858 206.781 139.138 207.379 139.138C207.985 139.138 208.289 138.858 208.289 138.298V136.184H210.067V138.312C210.067 139.161 209.829 139.824 209.353 140.3C208.886 140.767 208.228 141 207.379 141C206.455 141 205.839 140.753 205.531 140.258C205.185 140.753 204.597 141 203.767 141C203.319 141 202.987 140.935 202.773 140.804C202.745 141.504 202.563 142.12 202.227 142.652C201.9 143.184 201.443 143.599 200.855 143.898C200.276 144.197 199.609 144.346 198.853 144.346H198.293C197.079 144.346 196.141 143.996 195.479 143.296C194.825 142.605 194.499 141.635 194.499 140.384V137.584H196.277V140.342C196.277 141.051 196.44 141.583 196.767 141.938C197.093 142.302 197.602 142.484 198.293 142.484H198.853C199.525 142.484 200.052 142.307 200.435 141.952C200.817 141.597 201.009 141.107 201.009 140.482V136.184H202.787V138.298C202.787 138.858 203.104 139.138 203.739 139.138C204.056 139.138 204.294 139.063 204.453 138.914C204.621 138.765 204.705 138.559 204.705 138.298V136.184H206.483V138.298ZM206.427 130.934V132.46H204.747V130.934H206.427ZM207.561 133.132V134.728H203.613V133.132H207.561ZM214.359 140.482C214.359 141.247 214.205 141.919 213.897 142.498C213.589 143.086 213.146 143.539 212.567 143.856C211.998 144.183 211.335 144.346 210.579 144.346H209.403L209.249 142.484H210.551C211.195 142.484 211.695 142.307 212.049 141.952C212.404 141.607 212.581 141.117 212.581 140.482V136.184H214.359V140.482ZM219.261 139.138C219.307 139.138 219.34 139.199 219.359 139.32C219.387 139.441 219.401 139.703 219.401 140.104C219.401 140.477 219.387 140.72 219.359 140.832C219.34 140.944 219.307 141 219.261 141H218.757C217.973 141 217.375 140.776 216.965 140.328C216.563 139.871 216.363 139.222 216.363 138.382V131.984H218.155V138.256C218.155 138.555 218.211 138.779 218.323 138.928C218.444 139.068 218.631 139.138 218.883 139.138H219.261ZM220.79 139.138C220.631 138.97 220.505 138.751 220.412 138.48C220.328 138.209 220.286 137.939 220.286 137.668C220.286 137.155 220.407 136.683 220.65 136.254C220.902 135.825 221.242 135.484 221.672 135.232C222.101 134.98 222.577 134.854 223.1 134.854C223.66 134.854 224.15 134.971 224.57 135.204C224.999 135.428 225.33 135.75 225.564 136.17C225.806 136.59 225.928 137.066 225.928 137.598C225.928 138.214 225.732 138.727 225.34 139.138H226.95C227.043 139.138 227.09 139.46 227.09 140.104C227.09 140.701 227.043 141 226.95 141H225.046C224.514 141 224.098 140.981 223.8 140.944C223.501 140.897 223.268 140.823 223.1 140.72C222.932 140.823 222.689 140.897 222.372 140.944C222.064 140.981 221.662 141 221.168 141H219.264C219.17 141 219.124 140.701 219.124 140.104C219.124 139.46 219.17 139.138 219.264 139.138H220.79ZM223.1 136.632C222.782 136.632 222.526 136.735 222.33 136.94C222.143 137.136 222.05 137.383 222.05 137.682C222.05 137.971 222.143 138.247 222.33 138.508C222.516 138.76 222.773 138.97 223.1 139.138C223.445 138.979 223.706 138.769 223.884 138.508C224.061 138.237 224.15 137.962 224.15 137.682C224.15 137.355 224.056 137.099 223.87 136.912C223.683 136.725 223.426 136.632 223.1 136.632ZM222.148 133.454V131.858H224.052V133.454H222.148ZM228.025 139.138C228.343 139.138 228.581 139.063 228.739 138.914C228.907 138.765 228.991 138.559 228.991 138.298V136.184H230.769V138.298C230.769 138.858 231.091 139.138 231.735 139.138C232.053 139.138 232.291 139.063 232.449 138.914C232.617 138.765 232.701 138.559 232.701 138.298V136.184H234.479V138.298C234.479 138.858 234.778 139.138 235.375 139.138C235.973 139.138 236.271 138.858 236.271 138.298V136.184H238.049V138.312C238.049 139.161 237.811 139.824 237.335 140.3C236.869 140.767 236.215 141 235.375 141C234.881 141 234.484 140.939 234.185 140.818C233.887 140.687 233.663 140.501 233.513 140.258C233.336 140.501 233.103 140.687 232.813 140.818C232.533 140.939 232.174 141 231.735 141C231.222 141 230.811 140.939 230.503 140.818C230.195 140.687 229.967 140.501 229.817 140.258C229.453 140.753 228.856 141 228.025 141H226.947C226.854 141 226.807 140.701 226.807 140.104C226.807 139.46 226.854 139.138 226.947 139.138H228.025Z" fill="white"/>
<path d="M267.175 140.828C267.356 140.455 267.201 140.007 266.828 139.825C266.455 139.644 266.007 139.8 265.826 140.172C265.765 140.296 265.462 140.707 264.926 141.09C264.409 141.46 263.749 141.75 263 141.75C261.428 141.75 260.589 140.802 260.129 140.092C259.904 139.744 259.44 139.645 259.092 139.871C258.745 140.096 258.645 140.56 258.871 140.908C259.448 141.798 260.683 143.25 263 143.25C264.144 143.25 265.104 142.807 265.799 142.31C266.475 141.826 266.976 141.237 267.175 140.828Z" fill="white"/>
<path fill-rule="evenodd" clip-rule="evenodd" d="M264.507 128.58L265.382 129.153L273.409 134.371C273.756 134.597 273.855 135.061 273.629 135.409C273.403 135.756 272.939 135.854 272.591 135.629L271.713 135.058C271.737 135.243 271.75 135.431 271.75 135.621V144C271.75 146.347 269.847 148.25 267.5 148.25H258.5C256.153 148.25 254.25 146.347 254.25 144V135.621C254.25 135.431 254.263 135.243 254.288 135.058L253.409 135.629C253.062 135.854 252.597 135.756 252.371 135.409C252.146 135.061 252.244 134.597 252.591 134.371L260.619 129.153L261.493 128.58C262.408 127.981 263.592 127.981 264.507 128.58ZM263.681 129.837L264.562 130.41L269.007 133.321C269.783 133.829 270.25 134.694 270.25 135.621V144C270.25 145.519 269.019 146.75 267.5 146.75H258.5C256.981 146.75 255.75 145.519 255.75 144V135.621C255.75 134.694 256.218 133.829 256.993 133.321L261.438 130.41L262.319 129.837C262.733 129.568 263.267 129.568 263.681 129.837Z" fill="white"/>
<path d="M122.26 217.14C122.26 216.636 121.966 216.384 121.378 216.384H118.718V213.752C118.718 212.949 118.956 212.301 119.432 211.806C119.917 211.311 120.571 211.064 121.392 211.064H123.212L123.31 212.52H121.378C121.014 212.52 120.72 212.632 120.496 212.856C120.281 213.08 120.174 213.369 120.174 213.724V214.886H121.63C123.021 214.886 123.716 215.614 123.716 217.07C123.716 217.667 123.543 218.218 123.198 218.722C122.862 219.235 122.395 219.641 121.798 219.94C121.21 220.239 120.557 220.388 119.838 220.388H118.774C117.579 220.388 116.66 220.043 116.016 219.352C115.372 218.671 115.05 217.709 115.05 216.468V213.752H116.492V216.44C116.492 218.064 117.257 218.876 118.788 218.876H119.838C120.585 218.876 121.173 218.713 121.602 218.386C122.041 218.069 122.26 217.653 122.26 217.14ZM124.796 218.876C125.515 218.876 126.075 218.671 126.476 218.26C126.887 217.859 127.092 217.289 127.092 216.552V212.352H128.548V214.508C128.548 215.161 128.903 215.488 129.612 215.488H129.808C129.901 215.488 129.948 215.749 129.948 216.272C129.948 216.757 129.901 217 129.808 217H129.612C129.379 217 129.164 216.967 128.968 216.902C128.781 216.827 128.641 216.729 128.548 216.608V216.692C128.529 217.42 128.361 218.064 128.044 218.624C127.736 219.184 127.302 219.618 126.742 219.926C126.191 220.234 125.547 220.388 124.81 220.388H124.404L124.278 218.876H124.796ZM133.655 214.648C133.655 215.385 133.435 215.964 132.997 216.384C132.558 216.795 131.97 217 131.233 217H129.805C129.711 217 129.665 216.757 129.665 216.272C129.665 215.749 129.711 215.488 129.805 215.488H131.233C131.522 215.488 131.755 215.413 131.933 215.264C132.11 215.105 132.199 214.886 132.199 214.606V212.352H133.655V214.648ZM130.085 220.01V218.638H131.765V220.01H130.085ZM137.954 216.552C137.954 217.327 137.8 218.003 137.492 218.582C137.184 219.161 136.746 219.604 136.176 219.912C135.616 220.229 134.963 220.388 134.216 220.388H133.81L133.684 218.876H134.202C134.921 218.876 135.481 218.671 135.882 218.26C136.293 217.859 136.498 217.289 136.498 216.552V212.352H137.954V216.552ZM142.87 215.488C142.917 215.488 142.95 215.539 142.968 215.642C142.996 215.745 143.01 215.955 143.01 216.272C143.01 216.571 142.996 216.767 142.968 216.86C142.95 216.953 142.917 217 142.87 217H142.45C141.704 217 141.139 216.781 140.756 216.342C140.374 215.903 140.182 215.283 140.182 214.48V207.956H141.624V214.382C141.624 214.765 141.694 215.045 141.834 215.222C141.984 215.399 142.217 215.488 142.534 215.488H142.87ZM146.697 215.488C147.052 215.488 147.327 215.427 147.523 215.306C147.719 215.175 147.817 215.003 147.817 214.788C147.817 214.611 147.775 214.447 147.691 214.298C147.607 214.149 147.472 213.976 147.285 213.78L144.121 210.658V209.44L149.301 207.41L149.735 208.796L145.857 210.28L148.377 212.828C148.965 213.407 149.259 214.074 149.259 214.83C149.259 215.474 149.035 215.997 148.587 216.398C148.139 216.799 147.509 217 146.697 217H142.875C142.782 217 142.735 216.757 142.735 216.272C142.735 215.749 142.782 215.488 142.875 215.488H146.697ZM162.254 215.488C162.543 215.488 162.777 215.413 162.954 215.264C163.131 215.105 163.22 214.891 163.22 214.62V212.352H164.676V214.676C164.676 215.395 164.457 215.964 164.018 216.384C163.579 216.795 162.991 217 162.254 217H157.424C156.593 217 155.963 216.785 155.534 216.356C155.105 215.917 154.89 215.301 154.89 214.508V212.352H156.332V214.312C156.332 214.704 156.425 214.998 156.612 215.194C156.799 215.39 157.093 215.488 157.494 215.488H162.254ZM158.936 220.01V218.638H160.616V220.01H158.936ZM169.585 215.488C169.632 215.488 169.664 215.539 169.683 215.642C169.711 215.745 169.725 215.955 169.725 216.272C169.725 216.571 169.711 216.767 169.683 216.86C169.664 216.953 169.632 217 169.585 217H169.165C168.418 217 167.854 216.781 167.471 216.342C167.088 215.903 166.897 215.283 166.897 214.48V207.956H168.339V214.382C168.339 214.765 168.409 215.045 168.549 215.222C168.698 215.399 168.932 215.488 169.249 215.488H169.585ZM170.696 215.488C171.079 215.488 171.368 215.404 171.564 215.236C171.76 215.059 171.858 214.811 171.858 214.494V212.352H173.314V214.494C173.314 215.157 173.692 215.488 174.448 215.488C174.831 215.488 175.12 215.404 175.316 215.236C175.512 215.059 175.61 214.811 175.61 214.494V212.352H177.066V214.494C177.066 214.811 177.155 215.059 177.332 215.236C177.509 215.404 177.775 215.488 178.13 215.488C178.494 215.488 178.765 215.404 178.942 215.236C179.129 215.059 179.222 214.811 179.222 214.494V212.352H180.664V214.494C180.664 215.157 180.986 215.488 181.63 215.488H182.12C182.213 215.488 182.26 215.749 182.26 216.272C182.26 216.757 182.213 217 182.12 217H181.63C181.173 217 180.799 216.939 180.51 216.818C180.23 216.697 180.02 216.505 179.88 216.244C179.703 216.505 179.469 216.697 179.18 216.818C178.9 216.939 178.55 217 178.13 217C177.178 217 176.562 216.729 176.282 216.188C175.918 216.729 175.307 217 174.448 217C173.925 217 173.51 216.935 173.202 216.804C172.894 216.664 172.67 216.459 172.53 216.188C172.166 216.729 171.555 217 170.696 217H169.59C169.497 217 169.45 216.757 169.45 216.272C169.45 215.749 169.497 215.488 169.59 215.488H170.696ZM183.121 215.488C183.831 215.488 184.414 215.437 184.871 215.334C185.338 215.231 185.814 215.04 186.299 214.76L188.063 213.752C187.942 213.313 187.769 213.015 187.545 212.856C187.321 212.688 186.985 212.604 186.537 212.604H183.303L183.485 211.092H186.789C187.368 211.092 187.839 211.19 188.203 211.386C188.567 211.573 188.871 211.89 189.113 212.338C189.356 212.786 189.571 213.416 189.757 214.228L186.971 215.978C186.346 216.37 185.744 216.641 185.165 216.79C184.596 216.93 183.891 217 183.051 217H182.113C182.02 217 181.973 216.757 181.973 216.272C181.973 215.749 182.02 215.488 182.113 215.488H183.121ZM202.066 215.488C202.356 215.488 202.589 215.413 202.766 215.264C202.944 215.105 203.032 214.891 203.032 214.62V212.352H204.488V214.676C204.488 215.395 204.269 215.964 203.83 216.384C203.392 216.795 202.804 217 202.066 217H197.236C196.406 217 195.776 216.785 195.346 216.356C194.917 215.917 194.702 215.301 194.702 214.508V212.352H196.144V214.312C196.144 214.704 196.238 214.998 196.424 215.194C196.611 215.39 196.905 215.488 197.306 215.488H202.066ZM201.492 209.944V211.288H197.684V209.944H201.492ZM209.398 215.488C209.444 215.488 209.477 215.539 209.496 215.642C209.524 215.745 209.538 215.955 209.538 216.272C209.538 216.571 209.524 216.767 209.496 216.86C209.477 216.953 209.444 217 209.398 217H208.978C208.231 217 207.666 216.781 207.284 216.342C206.901 215.903 206.71 215.283 206.71 214.48V207.956H208.152V214.382C208.152 214.765 208.222 215.045 208.362 215.222C208.511 215.399 208.744 215.488 209.062 215.488H209.398ZM210.872 215.488C210.602 215.143 210.466 214.713 210.466 214.2C210.466 213.668 210.583 213.187 210.816 212.758C211.05 212.329 211.376 211.993 211.796 211.75C212.226 211.507 212.72 211.386 213.28 211.386C213.644 211.386 213.99 211.433 214.316 211.526C214.643 211.619 214.988 211.778 215.352 212.002L214.862 213.206C214.321 212.963 213.794 212.842 213.28 212.842C212.888 212.842 212.562 212.968 212.3 213.22C212.048 213.463 211.922 213.766 211.922 214.13C211.922 214.531 212.039 214.858 212.272 215.11C212.506 215.362 212.828 215.488 213.238 215.488H215.716L215.59 217H209.402C209.309 217 209.262 216.757 209.262 216.272C209.262 215.749 209.309 215.488 209.402 215.488H210.872ZM219.39 207.956V215.488H221C221.289 215.488 221.522 215.409 221.7 215.25C221.877 215.091 221.966 214.877 221.966 214.606V207.956H223.408V214.536C223.408 214.853 223.492 215.091 223.66 215.25C223.828 215.409 224.061 215.488 224.36 215.488H224.752C224.845 215.488 224.892 215.749 224.892 216.272C224.892 216.757 224.845 217 224.752 217H224.304C223.902 217 223.562 216.935 223.282 216.804C223.011 216.673 222.815 216.482 222.694 216.23C222.358 216.743 221.793 217 221 217H217.948V207.956H219.39ZM227.416 207.956V213.206C228.377 211.825 229.409 211.134 230.51 211.134C231.023 211.134 231.485 211.26 231.896 211.512C232.307 211.755 232.624 212.1 232.848 212.548C233.081 212.987 233.198 213.491 233.198 214.06C233.198 214.947 232.923 215.661 232.372 216.202C231.831 216.734 231.103 217 230.188 217H224.756C224.663 217 224.616 216.757 224.616 216.272C224.616 215.749 224.663 215.488 224.756 215.488H225.96V207.956H227.416ZM230.188 215.488C230.683 215.488 231.065 215.362 231.336 215.11C231.616 214.858 231.756 214.508 231.756 214.06C231.756 213.621 231.625 213.267 231.364 212.996C231.112 212.725 230.79 212.59 230.398 212.59C229.931 212.59 229.455 212.823 228.97 213.29C228.485 213.757 227.934 214.489 227.318 215.488H230.188ZM235.434 207.956H236.876V217H235.434V207.956Z" fill="#130505"/>
<path fill-rule="evenodd" clip-rule="evenodd" d="M263 204.25C260.377 204.25 258.25 206.377 258.25 209C258.25 211.623 260.377 213.75 263 213.75C265.624 213.75 267.75 211.623 267.75 209C267.75 206.377 265.624 204.25 263 204.25ZM259.75 209C259.75 207.205 261.205 205.75 263 205.75C264.795 205.75 266.25 207.205 266.25 209C266.25 210.795 264.795 212.25 263 212.25C261.205 212.25 259.75 210.795 259.75 209Z" fill="#2F0D0C"/>
<path d="M257.779 217.859C258.183 217.172 258.921 216.75 259.718 216.75H265.502C265.916 216.75 266.252 216.414 266.252 216C266.252 215.586 265.916 215.25 265.502 215.25H259.718C258.389 215.25 257.159 215.953 256.486 217.098L255.824 218.223C255.302 219.111 255.078 220.148 255.291 221.08C255.515 222.053 256.206 222.845 257.338 223.138C259.205 223.62 261.684 223.812 264.027 223.733C264.441 223.719 264.766 223.372 264.752 222.958C264.738 222.544 264.391 222.22 263.977 222.234C261.725 222.31 259.398 222.12 257.713 221.685C257.138 221.537 256.855 221.185 256.753 220.744C256.643 220.263 256.745 219.616 257.117 218.984L257.779 217.859Z" fill="#2F0D0C"/>
<path fill-rule="evenodd" clip-rule="evenodd" d="M272.129 222.318C272.522 221.725 272.75 221.014 272.75 220.25C272.75 218.179 271.071 216.5 269 216.5C266.929 216.5 265.25 218.179 265.25 220.25C265.25 222.321 266.929 224 269 224C269.764 224 270.475 223.771 271.068 223.379L271.97 224.281C272.263 224.574 272.738 224.574 273.031 224.281C273.324 223.988 273.324 223.513 273.031 223.22L272.129 222.318ZM266.75 220.25C266.75 219.007 267.758 218 269 218C270.243 218 271.25 219.007 271.25 220.25C271.25 221.493 270.243 222.5 269 222.5C267.758 222.5 266.75 221.493 266.75 220.25Z" fill="#2F0D0C"/>
<rect x="19" y="276" width="32" height="32" rx="16" fill="#CC312D"/>
<path d="M33.176 292.736C32.44 292.725 31.9013 292.469 31.56 291.968C31.2293 291.467 31 290.811 30.872 290L31.688 289.504C31.7627 290.048 31.88 290.443 32.04 290.688C32.2 290.923 32.4987 291.04 32.936 291.04H33.224C33.5333 291.04 33.7787 290.96 33.96 290.8C34.1413 290.64 34.2533 290.432 34.296 290.176L34.856 287.456L36.28 287.712L35.832 289.968C35.8213 290.011 35.816 290.069 35.816 290.144C35.816 290.389 35.9013 290.603 36.072 290.784C36.2533 290.955 36.472 291.04 36.728 291.04H38.2V287.248H39.624V290.56C39.624 291.232 39.448 291.765 39.096 292.16C38.7547 292.544 38.2533 292.736 37.592 292.736H36.728C35.928 292.736 35.3573 292.4 35.016 291.728C34.8133 292.059 34.5467 292.309 34.216 292.48C33.896 292.651 33.5493 292.736 33.176 292.736ZM30.424 292.896C30.424 291.883 30.376 290.992 30.28 290.224C30.184 289.456 30.0347 288.501 29.832 287.36L31.32 286.896C31.512 288.112 31.6453 289.109 31.72 289.888C31.8053 290.656 31.848 291.589 31.848 292.688V298H30.424V292.896Z" fill="white"/>
<path d="M198.878 293.488C198.925 293.488 198.957 293.539 198.976 293.642C199.004 293.745 199.018 293.955 199.018 294.272C199.018 294.571 199.004 294.767 198.976 294.86C198.957 294.953 198.925 295 198.878 295H198.458C197.711 295 197.147 294.781 196.764 294.342C196.381 293.903 196.19 293.283 196.19 292.48V285.956H197.632V292.382C197.632 292.765 197.702 293.045 197.842 293.222C197.991 293.399 198.225 293.488 198.542 293.488H198.878ZM200.717 293.488C200.502 293.292 200.329 293.045 200.199 292.746C200.068 292.447 200.003 292.144 200.003 291.836C200.003 291.313 200.124 290.847 200.367 290.436C200.609 290.016 200.941 289.689 201.361 289.456C201.781 289.213 202.252 289.092 202.775 289.092C203.269 289.092 203.713 289.209 204.105 289.442C204.506 289.675 204.819 289.993 205.043 290.394C205.276 290.786 205.393 291.225 205.393 291.71C205.393 292.065 205.309 292.401 205.141 292.718C204.982 293.035 204.763 293.292 204.483 293.488H206.191C206.536 293.488 206.797 293.427 206.975 293.306C207.152 293.185 207.241 293.012 207.241 292.788C207.241 292.62 207.199 292.461 207.115 292.312C207.04 292.153 206.886 291.957 206.653 291.724L203.881 288.798L204.917 287.72L207.759 290.772C208.085 291.117 208.323 291.458 208.473 291.794C208.622 292.13 208.697 292.475 208.697 292.83C208.697 293.483 208.473 294.011 208.025 294.412C207.577 294.804 206.965 295 206.191 295H204.623C204.016 295 203.577 294.986 203.307 294.958C203.045 294.921 202.831 294.851 202.663 294.748C202.495 294.841 202.257 294.907 201.949 294.944C201.65 294.981 201.221 295 200.661 295H198.883C198.789 295 198.743 294.757 198.743 294.272C198.743 293.749 198.789 293.488 198.883 293.488H200.717ZM202.635 293.474C203.073 293.287 203.409 293.054 203.643 292.774C203.876 292.494 203.993 292.181 203.993 291.836C203.993 291.453 203.876 291.145 203.643 290.912C203.409 290.669 203.097 290.548 202.705 290.548C202.313 290.548 201.995 290.669 201.753 290.912C201.519 291.145 201.403 291.453 201.403 291.836C201.403 292.545 201.813 293.091 202.635 293.474ZM217.164 291.85C217.164 291.346 217.285 290.959 217.528 290.688H216.982C216.506 290.688 216.142 290.814 215.89 291.066C215.638 291.309 215.512 291.654 215.512 292.102V298.388H214.07V292.102C214.07 291.225 214.336 290.529 214.868 290.016C215.409 289.493 216.137 289.232 217.052 289.232H219.992C220.841 289.232 221.476 289.442 221.896 289.862C222.325 290.273 222.54 290.865 222.54 291.64V292.494C222.54 293.306 222.306 293.927 221.84 294.356C221.373 294.785 220.696 295 219.81 295C218.942 295 218.284 294.795 217.836 294.384C217.388 293.964 217.164 293.385 217.164 292.648V291.85ZM219.88 293.488C220.272 293.488 220.57 293.409 220.776 293.25C220.981 293.091 221.084 292.825 221.084 292.452V291.766C221.084 291.421 220.986 291.155 220.79 290.968C220.603 290.781 220.337 290.688 219.992 290.688H219.642C219.306 290.688 219.049 290.791 218.872 290.996C218.704 291.192 218.62 291.453 218.62 291.78V292.368C218.62 292.779 218.718 293.068 218.914 293.236C219.119 293.404 219.441 293.488 219.88 293.488ZM227.466 293.488C227.513 293.488 227.545 293.539 227.564 293.642C227.592 293.745 227.606 293.955 227.606 294.272C227.606 294.571 227.592 294.767 227.564 294.86C227.545 294.953 227.513 295 227.466 295H227.046C226.299 295 225.735 294.781 225.352 294.342C224.969 293.903 224.778 293.283 224.778 292.48V285.956H226.22V292.382C226.22 292.765 226.29 293.045 226.43 293.222C226.579 293.399 226.813 293.488 227.13 293.488H227.466ZM230.089 293.488C230.387 293.488 230.625 293.413 230.803 293.264C230.989 293.105 231.083 292.886 231.083 292.606V290.352H232.525V292.55C232.525 293.175 232.847 293.488 233.491 293.488H233.981C234.074 293.488 234.121 293.745 234.121 294.258C234.121 294.753 234.074 295 233.981 295H233.435C232.613 295 232.067 294.748 231.797 294.244C231.47 294.748 230.901 295 230.089 295H227.471C227.377 295 227.331 294.757 227.331 294.272C227.331 293.749 227.377 293.488 227.471 293.488H230.089ZM231.055 296.638V297.982H227.247V296.638H231.055ZM237.829 292.648C237.829 293.385 237.609 293.964 237.171 294.384C236.732 294.795 236.144 295 235.407 295H233.979C233.885 295 233.839 294.757 233.839 294.272C233.839 293.749 233.885 293.488 233.979 293.488H235.407C235.696 293.488 235.929 293.413 236.107 293.264C236.284 293.105 236.373 292.886 236.373 292.606V290.352H237.829V292.648ZM237.003 296.638V297.982H233.195V296.638H237.003ZM234.399 300.04V298.738H235.799V300.04H234.399Z" fill="#130505"/>
<path fill-rule="evenodd" clip-rule="evenodd" d="M263 282.25C259.32 282.25 256.25 285.068 256.25 288.642V289.697C256.25 290.725 255.946 291.729 255.376 292.584C255.366 292.599 255.357 292.614 255.348 292.63L254.969 293.298C254.479 294.163 254.319 295.175 254.515 296.148C254.53 296.221 254.553 296.322 254.592 296.445C255.055 297.933 256.501 298.699 257.69 299.057C258.045 299.164 258.423 299.258 258.817 299.34L258.868 299.422C259.962 301.168 261.435 302.2 263.051 302.2C264.667 302.2 266.139 301.168 267.234 299.422L267.3 299.315C267.654 299.239 267.994 299.152 268.316 299.055C269.52 298.692 270.909 297.912 271.392 296.456C271.41 296.401 271.425 296.352 271.437 296.315C271.45 296.273 271.456 296.255 271.46 296.244C271.47 296.213 271.479 296.181 271.485 296.149C271.682 295.175 271.521 294.163 271.031 293.298L270.653 292.63C270.644 292.614 270.634 292.599 270.624 292.584C270.054 291.729 269.75 290.725 269.75 289.697V288.642C269.75 285.068 266.68 282.25 263 282.25ZM265.189 299.635C263.797 299.768 262.319 299.772 260.923 299.645C261.638 300.389 262.382 300.7 263.051 300.7C263.722 300.7 264.47 300.386 265.189 299.635ZM257.75 288.642C257.75 285.983 260.06 283.75 263 283.75C265.941 283.75 268.25 285.983 268.25 288.642V289.697C268.25 291.011 268.636 292.297 269.361 293.393L269.726 294.038C270.031 294.576 270.136 295.204 270.023 295.811L270.007 295.863L270.004 295.871C269.993 295.908 269.982 295.944 269.968 295.984C269.716 296.746 268.916 297.307 267.883 297.619C265.151 298.443 260.857 298.444 258.123 297.62C257.067 297.302 256.257 296.749 256.024 295.999C256.003 295.932 255.991 295.881 255.985 295.852C255.861 295.231 255.963 294.587 256.274 294.038L256.64 293.393C257.364 292.297 257.75 291.011 257.75 289.697V288.642Z" fill="#190D03"/>
<path d="M271.388 288.251C271.801 288.275 272.117 288.629 272.094 289.042C272.06 289.643 272.078 290.06 272.174 290.418C272.266 290.76 272.442 291.096 272.804 291.5C273.08 291.809 273.054 292.283 272.745 292.559C272.437 292.835 271.963 292.809 271.686 292.5C271.198 291.954 270.889 291.415 270.726 290.807C270.567 290.215 270.56 289.607 270.596 288.958C270.62 288.544 270.974 288.228 271.388 288.251Z" fill="#190D03"/>
<path d="M255.403 288.958C255.379 288.544 255.025 288.228 254.612 288.251C254.198 288.275 253.882 288.629 253.905 289.042C253.939 289.643 253.921 290.06 253.825 290.418C253.733 290.76 253.557 291.096 253.195 291.5C252.919 291.809 252.945 292.283 253.254 292.559C253.563 292.835 254.037 292.809 254.313 292.5C254.801 291.954 255.11 291.415 255.274 290.807C255.433 290.215 255.439 289.607 255.403 288.958Z" fill="#190D03"/>
<path d="M191.226 370.62C191.226 370.891 191.305 371.105 191.464 371.264C191.632 371.413 191.87 371.488 192.178 371.488H192.5C192.593 371.488 192.64 371.749 192.64 372.272C192.64 372.757 192.593 373 192.5 373H192.234C192.019 373 191.819 372.972 191.632 372.916C191.455 372.86 191.319 372.79 191.226 372.706V372.776C191.207 373.476 191.035 374.101 190.708 374.652C190.381 375.203 189.929 375.627 189.35 375.926C188.771 376.234 188.109 376.388 187.362 376.388H186.774C185.579 376.388 184.66 376.043 184.016 375.352C183.372 374.671 183.05 373.709 183.05 372.468V369.752H184.492V372.44C184.492 374.064 185.257 374.876 186.788 374.876H187.362C188.109 374.876 188.697 374.671 189.126 374.26C189.555 373.849 189.77 373.285 189.77 372.566V368.352H191.226V370.62ZM186.018 368.016V366.644H187.698V368.016H186.018ZM192.836 371.488C193.144 371.488 193.363 371.427 193.494 371.306C193.634 371.175 193.704 370.975 193.704 370.704V370.214C193.704 369.318 193.951 368.609 194.446 368.086C194.95 367.563 195.631 367.302 196.49 367.302C197.349 367.302 198.007 367.554 198.464 368.058C198.921 368.553 199.15 369.267 199.15 370.2C199.15 371.087 198.907 371.777 198.422 372.272C197.946 372.757 197.283 373 196.434 373C195.958 373 195.557 372.935 195.23 372.804C194.903 372.664 194.665 372.473 194.516 372.23C194.348 372.501 194.129 372.697 193.858 372.818C193.597 372.939 193.256 373 192.836 373H192.5C192.407 373 192.36 372.757 192.36 372.272C192.36 371.749 192.407 371.488 192.5 371.488H192.836ZM197.708 370.2C197.708 369.715 197.601 369.355 197.386 369.122C197.181 368.879 196.863 368.758 196.434 368.758C196.005 368.758 195.683 368.879 195.468 369.122C195.263 369.355 195.16 369.719 195.16 370.214C195.16 370.625 195.267 370.942 195.482 371.166C195.697 371.381 196.014 371.488 196.434 371.488C196.863 371.488 197.181 371.385 197.386 371.18C197.601 370.965 197.708 370.639 197.708 370.2ZM211.893 371.488C212.182 371.488 212.415 371.413 212.593 371.264C212.77 371.105 212.859 370.891 212.859 370.62V368.352H214.315V370.676C214.315 371.395 214.095 371.964 213.657 372.384C213.218 372.795 212.63 373 211.893 373H207.063C206.232 373 205.602 372.785 205.173 372.356C204.743 371.917 204.529 371.301 204.529 370.508V368.352H205.971V370.312C205.971 370.704 206.064 370.998 206.251 371.194C206.437 371.39 206.731 371.488 207.133 371.488H211.893ZM211.319 365.944V367.288H207.511V365.944H211.319ZM216.536 363.956H217.978V373H216.536V363.956ZM222.443 370.508C222.443 371.161 222.797 371.488 223.507 371.488H223.703C223.796 371.488 223.843 371.749 223.843 372.272C223.843 372.757 223.796 373 223.703 373H223.507C223.273 373 223.059 372.967 222.863 372.902C222.676 372.827 222.536 372.729 222.443 372.608V372.692C222.424 373.42 222.256 374.064 221.939 374.624C221.631 375.184 221.197 375.618 220.637 375.926C220.086 376.234 219.442 376.388 218.705 376.388H217.654L217.528 374.876H218.691C219.409 374.876 219.969 374.671 220.37 374.26C220.781 373.859 220.987 373.289 220.987 372.552V368.352H222.443V370.508ZM226.359 363.956V369.206C227.321 367.825 228.352 367.134 229.453 367.134C229.967 367.134 230.429 367.26 230.839 367.512C231.25 367.755 231.567 368.1 231.791 368.548C232.025 368.987 232.141 369.491 232.141 370.06C232.141 370.536 232.057 370.942 231.889 371.278C232.011 371.362 232.155 371.418 232.323 371.446C232.491 371.474 232.715 371.488 232.995 371.488H233.331C233.425 371.488 233.471 371.749 233.471 372.272C233.471 372.757 233.425 373 233.331 373H232.995C232.538 373 232.165 372.958 231.875 372.874C231.586 372.781 231.329 372.617 231.105 372.384C230.853 372.58 230.555 372.734 230.209 372.846C229.873 372.949 229.514 373 229.131 373H223.699C223.606 373 223.559 372.757 223.559 372.272C223.559 371.749 223.606 371.488 223.699 371.488H224.903V363.956H226.359ZM229.131 371.488C229.626 371.488 230.009 371.362 230.279 371.11C230.559 370.858 230.699 370.508 230.699 370.06C230.699 369.621 230.569 369.267 230.307 368.996C230.055 368.725 229.733 368.59 229.341 368.59C228.875 368.59 228.399 368.823 227.913 369.29C227.428 369.757 226.877 370.489 226.261 371.488H229.131ZM228.599 365.734V364.362H230.279V365.734H228.599ZM237.188 370.648C237.188 371.385 236.969 371.964 236.53 372.384C236.091 372.795 235.503 373 234.766 373H233.338C233.245 373 233.198 372.757 233.198 372.272C233.198 371.749 233.245 371.488 233.338 371.488H234.766C235.055 371.488 235.289 371.413 235.466 371.264C235.643 371.105 235.732 370.886 235.732 370.606V368.352H237.188V370.648ZM234.822 366.756V365.384H236.502V366.756H234.822Z" fill="#130505"/>
<path d="M257.25 370.25C257.25 369.836 257.586 369.5 258 369.5H264C264.414 369.5 264.75 369.836 264.75 370.25C264.75 370.664 264.414 371 264 371H258C257.586 371 257.25 370.664 257.25 370.25Z" fill="#2F0D0C"/>
<path d="M258 365.5C257.586 365.5 257.25 365.836 257.25 366.25C257.25 366.664 257.586 367 258 367H260.5C260.914 367 261.25 366.664 261.25 366.25C261.25 365.836 260.914 365.5 260.5 365.5H258Z" fill="#2F0D0C"/>
<path fill-rule="evenodd" clip-rule="evenodd" d="M252.25 364.5C252.25 362.153 254.153 360.25 256.5 360.25H269.5C271.847 360.25 273.75 362.153 273.75 364.5V372.5C273.75 374.847 271.847 376.75 269.5 376.75H263.725C263.46 376.75 263.205 376.855 263.018 377.043L260.512 379.548C259.241 380.819 257.067 380.161 256.715 378.399L256.493 377.287C256.43 376.975 256.156 376.75 255.837 376.75C253.856 376.75 252.25 375.144 252.25 373.163V364.5ZM256.5 361.75C254.981 361.75 253.75 362.981 253.75 364.5V373.163C253.75 374.316 254.684 375.25 255.837 375.25C256.871 375.25 257.761 375.98 257.964 376.993L258.186 378.105C258.303 378.692 259.028 378.911 259.452 378.488L261.957 375.982C262.426 375.513 263.062 375.25 263.725 375.25H269.5C271.019 375.25 272.25 374.019 272.25 372.5V364.5C272.25 362.981 271.019 361.75 269.5 361.75H256.5Z" fill="#2F0D0C"/>
<path d="M214.082 474.638V473.266H215.762V474.638H214.082ZM211.492 474.54C211.492 475.165 211.683 475.618 212.066 475.898C212.458 476.187 213.088 476.332 213.956 476.332H216.98L216.854 477.844H213.858C211.319 477.844 210.05 476.794 210.05 474.694C210.05 473.845 210.283 473.098 210.75 472.454C211.217 471.801 211.987 471.231 213.06 470.746L215.398 469.682C215.295 469.374 215.188 469.145 215.076 468.996C214.973 468.847 214.843 468.744 214.684 468.688C214.525 468.632 214.306 468.604 214.026 468.604H210.68L210.876 467.092H214.264C214.824 467.092 215.277 467.185 215.622 467.372C215.977 467.559 216.271 467.881 216.504 468.338C216.737 468.795 216.933 469.444 217.092 470.284L213.606 471.95C212.803 472.333 212.248 472.72 211.94 473.112C211.641 473.504 211.492 473.98 211.492 474.54ZM224.574 472.496C224.574 473.299 224.424 473.989 224.126 474.568C223.827 475.156 223.402 475.604 222.852 475.912C222.31 476.229 221.671 476.388 220.934 476.388H219.128L219.002 474.876H220.976C221.638 474.876 222.161 474.708 222.544 474.372C222.926 474.036 223.122 473.579 223.132 473H221.928C220.938 473 220.229 472.799 219.8 472.398C219.37 471.987 219.156 471.348 219.156 470.48C219.156 469.883 219.268 469.355 219.492 468.898C219.725 468.441 220.047 468.086 220.458 467.834C220.878 467.573 221.358 467.442 221.9 467.442C222.73 467.442 223.384 467.722 223.86 468.282C224.336 468.833 224.574 469.589 224.574 470.55V472.496ZM220.612 470.41C220.612 470.802 220.714 471.082 220.92 471.25C221.125 471.409 221.484 471.488 221.998 471.488H223.132V470.578C223.132 470.027 223.02 469.612 222.796 469.332C222.572 469.043 222.25 468.898 221.83 468.898C221.447 468.898 221.148 469.038 220.934 469.318C220.719 469.589 220.612 469.953 220.612 470.41ZM225.661 474.876C226.38 474.876 226.94 474.671 227.341 474.26C227.752 473.859 227.957 473.289 227.957 472.552V468.352H229.413V470.508C229.413 471.161 229.768 471.488 230.477 471.488H230.673C230.767 471.488 230.813 471.749 230.813 472.272C230.813 472.757 230.767 473 230.673 473H230.477C230.244 473 230.029 472.967 229.833 472.902C229.647 472.827 229.507 472.729 229.413 472.608V472.692C229.395 473.42 229.227 474.064 228.909 474.624C228.601 475.184 228.167 475.618 227.607 475.926C227.057 476.234 226.413 476.388 225.675 476.388H225.269L225.143 474.876H225.661ZM231.678 471.488C232.387 471.488 232.971 471.437 233.428 471.334C233.895 471.231 234.371 471.04 234.856 470.76L236.62 469.752C236.499 469.313 236.326 469.015 236.102 468.856C235.878 468.688 235.542 468.604 235.094 468.604H231.86L232.042 467.092H235.346C235.925 467.092 236.396 467.19 236.76 467.386C237.124 467.573 237.427 467.89 237.67 468.338C237.913 468.786 238.127 469.416 238.314 470.228L235.528 471.978C234.903 472.37 234.301 472.641 233.722 472.79C233.153 472.93 232.448 473 231.608 473H230.67C230.577 473 230.53 472.757 230.53 472.272C230.53 471.749 230.577 471.488 230.67 471.488H231.678ZM233.554 465.552V464.18H235.234V465.552H233.554Z" fill="#130505"/>
<path d="M255.25 464.401C255.25 462.734 256.72 461.451 258.372 461.676L262.372 462.221C263.734 462.407 264.75 463.571 264.75 464.946V466.5C264.75 466.914 265.086 467.25 265.5 467.25C265.914 467.25 266.25 466.914 266.25 466.5V464.946C266.25 462.821 264.68 461.022 262.574 460.735L258.574 460.19C256.022 459.842 253.75 461.825 253.75 464.401V475.604C253.75 478.481 256.548 480.527 259.289 479.654L263.289 478.382C265.052 477.82 266.25 476.182 266.25 474.332V473.5C266.25 473.086 265.914 472.75 265.5 472.75C265.086 472.75 264.75 473.086 264.75 473.5V474.332C264.75 475.529 263.975 476.589 262.834 476.952L258.834 478.225C257.06 478.789 255.25 477.466 255.25 475.604V464.401Z" fill="#190D03"/>
<path d="M267.925 466.518C268.191 466.201 268.664 466.159 268.982 466.425L271.618 468.635C272.461 469.341 272.461 470.658 271.618 471.365L268.982 473.575C268.664 473.841 268.191 473.799 267.925 473.482C267.659 473.164 267.701 472.691 268.018 472.425L270.016 470.75H260C259.586 470.75 259.25 470.414 259.25 470C259.25 469.586 259.586 469.25 260 469.25H270.017L268.018 467.575C267.701 467.309 267.659 466.836 267.925 466.518Z" fill="#190D03"/>
</svg>
