<svg width="143" height="44" viewBox="0 0 143 44" fill="none" xmlns="http://www.w3.org/2000/svg">
<rect width="143" height="44" rx="22" fill="#448CF9" fill-opacity="0.1"/>
<path d="M27.4627 22.184C27.4627 22.664 27.7187 22.904 28.2307 22.904C28.7507 22.904 29.0107 22.664 29.0107 22.184V20.372H30.5347V22.196C30.5347 22.924 30.3307 23.492 29.9227 23.9C29.5227 24.3 28.9587 24.5 28.2307 24.5C27.4387 24.5 26.9107 24.288 26.6467 23.864C26.3507 24.288 25.8467 24.5 25.1347 24.5C24.7507 24.5 24.4667 24.444 24.2827 24.332C24.2587 24.932 24.1027 25.46 23.8147 25.916C23.5347 26.372 23.1427 26.728 22.6387 26.984C22.1427 27.24 21.5707 27.368 20.9227 27.368H20.4427C19.4027 27.368 18.5987 27.068 18.0307 26.468C17.4707 25.876 17.1907 25.044 17.1907 23.972V21.572H18.7147V23.936C18.7147 24.544 18.8547 25 19.1347 25.304C19.4147 25.616 19.8507 25.772 20.4427 25.772H20.9227C21.4987 25.772 21.9507 25.62 22.2787 25.316C22.6067 25.012 22.7707 24.592 22.7707 24.056V20.372H24.2947V22.184C24.2947 22.664 24.5667 22.904 25.1107 22.904C25.3827 22.904 25.5867 22.84 25.7227 22.712C25.8667 22.584 25.9387 22.408 25.9387 22.184V20.372H27.4627V22.184ZM27.4147 15.872V17.18H25.9747V15.872H27.4147ZM28.3867 17.756V19.124H25.0027V17.756H28.3867ZM34.2141 24.056C34.2141 24.712 34.0821 25.288 33.8181 25.784C33.5541 26.288 33.1741 26.676 32.6781 26.948C32.1901 27.228 31.6221 27.368 30.9741 27.368H29.9661L29.8341 25.772H30.9501C31.5021 25.772 31.9301 25.62 32.2341 25.316C32.5381 25.02 32.6901 24.6 32.6901 24.056V20.372H34.2141V24.056ZM32.5821 19.124V17.756H34.2141V19.124H32.5821ZM35.9315 16.772H37.4675V24.5H35.9315V16.772ZM43.7108 20.732C44.0068 21.076 44.2148 21.388 44.3348 21.668C44.4548 21.948 44.5148 22.244 44.5148 22.556C44.5148 23.124 44.3108 23.592 43.9028 23.96C43.5028 24.32 42.9428 24.5 42.2228 24.5H38.9708L38.8508 22.904H42.1508C42.3988 22.904 42.5908 22.864 42.7268 22.784C42.8628 22.704 42.9308 22.592 42.9308 22.448C42.9308 22.344 42.9028 22.244 42.8468 22.148C42.7908 22.044 42.6868 21.904 42.5348 21.728L40.4708 19.304L41.5748 18.212L43.7108 20.732ZM48.1829 22.184C48.1829 22.432 48.2429 22.616 48.3629 22.736C48.4909 22.848 48.6909 22.904 48.9629 22.904H49.1789C49.2589 22.904 49.2989 23.18 49.2989 23.732C49.2989 24.244 49.2589 24.5 49.1789 24.5H48.9869C48.8189 24.5 48.6629 24.48 48.5189 24.44C48.3749 24.392 48.2629 24.328 48.1829 24.248C48.1589 24.848 48.0109 25.384 47.7389 25.856C47.4749 26.328 47.1029 26.696 46.6229 26.96C46.1429 27.232 45.5829 27.368 44.9429 27.368H43.9349L43.8029 25.772H44.9189C45.4709 25.772 45.8989 25.62 46.2029 25.316C46.5069 25.02 46.6589 24.6 46.6589 24.056V20.372H48.1829V22.184ZM52.1038 22.904C52.2958 22.904 52.4518 22.852 52.5718 22.748C52.6998 22.636 52.7638 22.484 52.7638 22.292V20.372H54.2878V22.364C54.2878 23.028 54.0878 23.552 53.6878 23.936C53.2958 24.312 52.7638 24.5 52.0918 24.5H49.1758C49.0958 24.5 49.0558 24.244 49.0558 23.732C49.0558 23.18 49.0958 22.904 49.1758 22.904H52.1038ZM52.6438 25.748V27.116H49.2598V25.748H52.6438ZM50.2678 29V27.692H51.6358V29H50.2678ZM61.7982 27.368C60.7582 27.368 59.9542 27.068 59.3862 26.468C58.8262 25.876 58.5462 25.044 58.5462 23.972V21.572H60.0702V23.936C60.0702 24.544 60.2102 25 60.4902 25.304C60.7702 25.616 61.2062 25.772 61.7982 25.772H62.2782C62.8542 25.772 63.3062 25.62 63.6342 25.316C63.9622 25.012 64.1262 24.592 64.1262 24.056V16.772H65.6502V23.936C65.6502 24.656 65.5102 25.272 65.2302 25.784C64.9502 26.304 64.5542 26.696 64.0422 26.96C63.5382 27.232 62.9502 27.368 62.2782 27.368H61.7982ZM69.9741 22.904C70.0141 22.904 70.0421 22.956 70.0581 23.06C70.0821 23.164 70.0941 23.388 70.0941 23.732C70.0941 24.052 70.0821 24.26 70.0581 24.356C70.0421 24.452 70.0141 24.5 69.9741 24.5H69.5421C68.8701 24.5 68.3581 24.308 68.0061 23.924C67.6621 23.532 67.4901 22.976 67.4901 22.256V16.772H69.0261V22.148C69.0261 22.404 69.0741 22.596 69.1701 22.724C69.2741 22.844 69.4341 22.904 69.6501 22.904H69.9741ZM70.8646 22.904C71.4726 22.904 71.9726 22.864 72.3646 22.784C72.7646 22.704 73.1766 22.544 73.6006 22.304L74.7166 21.668C74.6366 21.364 74.5166 21.16 74.3566 21.056C74.2046 20.944 73.9726 20.888 73.6606 20.888H70.9126L71.0926 19.304H73.9486C74.4526 19.304 74.8606 19.392 75.1726 19.568C75.4846 19.736 75.7446 20.028 75.9526 20.444C76.1686 20.852 76.3606 21.428 76.5286 22.172L74.1886 23.624C73.6446 23.96 73.1246 24.192 72.6286 24.32C72.1326 24.44 71.5206 24.5 70.7926 24.5H69.9766C69.8966 24.5 69.8566 24.244 69.8566 23.732C69.8566 23.18 69.8966 22.904 69.9766 22.904H70.8646ZM83.2688 24.056C83.2688 24.712 83.1368 25.288 82.8728 25.784C82.6088 26.288 82.2288 26.676 81.7328 26.948C81.2448 27.228 80.6768 27.368 80.0288 27.368H79.6448L79.5128 25.772H80.0048C80.5568 25.772 80.9848 25.62 81.2888 25.316C81.5928 25.02 81.7448 24.6 81.7448 24.056V20.372H83.2688V24.056ZM89.4022 20.732C89.6982 21.076 89.9062 21.388 90.0262 21.668C90.1462 21.948 90.2062 22.244 90.2062 22.556C90.2062 23.124 90.0022 23.592 89.5942 23.96C89.1942 24.32 88.6342 24.5 87.9142 24.5H84.6622L84.5422 22.904H87.8422C88.0902 22.904 88.2822 22.864 88.4182 22.784C88.5542 22.704 88.6222 22.592 88.6222 22.448C88.6222 22.344 88.5942 22.244 88.5382 22.148C88.4822 22.044 88.3782 21.904 88.2262 21.728L86.1622 19.304L87.2662 18.212L89.4022 20.732Z" fill="#2E7AF1"/>
<circle cx="113" cy="22" r="11.6667" stroke="#2E7AF1" stroke-width="1.75"/>
<path d="M113 17.3333V21.6877C113 21.8828 113.097 22.0649 113.26 22.1731L116.5 24.3333" stroke="#2E7AF1" stroke-width="1.75" stroke-linecap="round"/>
</svg>
