<svg width="150" height="56" viewBox="0 0 150 56" fill="none" xmlns="http://www.w3.org/2000/svg">
<path d="M25.706 17.164C26.09 17.2493 26.394 17.436 26.618 17.724C26.8527 18.0013 26.97 18.332 26.97 18.716V19.244C26.97 19.7987 26.8313 20.3107 26.554 20.78C26.2767 21.26 25.9033 21.6387 25.434 21.916C24.9647 22.1933 24.4527 22.332 23.898 22.332H20.682C20.074 22.332 19.5087 22.1773 18.986 21.868C18.4633 21.5587 18.0473 21.1427 17.738 20.62C17.4393 20.0973 17.29 19.532 17.29 18.924V15.26H18.714V18.716C18.714 19.2493 18.9007 19.7027 19.274 20.076C19.658 20.4493 20.1167 20.636 20.65 20.636H24.09C24.506 20.636 24.8473 20.4867 25.114 20.188C25.3913 19.9 25.53 19.5427 25.53 19.116V18.588L21.114 17.532V15.756C21.114 15.2333 21.2313 14.748 21.466 14.3C21.7007 13.852 22.0207 13.484 22.426 13.196C22.842 12.908 23.306 12.732 23.818 12.668L25.866 12.396L26.042 13.852L23.77 14.156C23.3967 14.2093 23.0927 14.38 22.858 14.668C22.6233 14.9453 22.506 15.2707 22.506 15.644V16.396L25.706 17.164ZM37.3288 17.82C37.3928 17.82 37.4461 17.8467 37.4888 17.9C37.5314 17.9427 37.5528 17.996 37.5528 18.06V19.276C37.5528 19.34 37.5314 19.3933 37.4888 19.436C37.4568 19.4787 37.4034 19.5 37.3288 19.5H37.0248C36.6088 19.5 36.2194 19.388 35.8568 19.164C35.5048 18.9293 35.2221 18.6147 35.0088 18.22C34.8594 18.6253 34.6034 18.94 34.2408 19.164C33.8888 19.388 33.5048 19.5 33.0888 19.5H30.9288C30.4061 19.5 29.9581 19.3133 29.5848 18.94C29.2114 18.556 29.0247 18.1027 29.0247 17.58V15.676H30.2248V17.244C30.2248 17.404 30.2728 17.5427 30.3688 17.66C30.4754 17.7667 30.6088 17.82 30.7688 17.82H33.1048C33.4354 17.82 33.7128 17.708 33.9368 17.484C34.1714 17.2493 34.2888 16.9773 34.2888 16.668C34.2888 16.54 34.2781 16.444 34.2568 16.38L33.0088 11.916L34.3848 11.452L35.9048 16.86C35.9901 17.1587 36.1181 17.3933 36.2888 17.564C36.4594 17.7347 36.6728 17.82 36.9288 17.82H37.3288ZM37.3281 19.5C37.2641 19.5 37.2108 19.484 37.1681 19.452C37.1255 19.4093 37.1041 19.3507 37.1041 19.276V18.06C37.1041 17.996 37.1308 17.9427 37.1841 17.9C37.2268 17.8467 37.2748 17.82 37.3281 17.82H38.5281C39.1148 17.82 39.4721 17.532 39.6001 16.956L40.1601 14.22L41.5521 14.492L41.1041 16.748C41.0935 16.7907 41.0881 16.86 41.0881 16.956C41.0881 17.212 41.1735 17.42 41.3441 17.58C41.5148 17.74 41.7388 17.82 42.0161 17.82H43.1041C43.1681 17.82 43.2215 17.8467 43.2641 17.9C43.3068 17.9427 43.3281 17.996 43.3281 18.06V19.276C43.3281 19.34 43.3068 19.3933 43.2641 19.436C43.2215 19.4787 43.1681 19.5 43.1041 19.5H42.0001C41.6161 19.5 41.2695 19.4147 40.9601 19.244C40.6615 19.0733 40.4375 18.828 40.2881 18.508C40.1175 18.8173 39.8615 19.0627 39.5201 19.244C39.1788 19.4147 38.8215 19.5 38.4481 19.5H37.3281ZM40.6401 21.42H42.2241V23.02H40.6401V21.42ZM38.2081 21.42H39.7921V23.02H38.2081V21.42ZM43.1094 19.5C43.0454 19.5 42.992 19.484 42.9494 19.452C42.9067 19.4093 42.8854 19.3507 42.8854 19.276V18.06C42.8854 17.996 42.912 17.9427 42.9654 17.9C43.008 17.8467 43.056 17.82 43.1094 17.82H44.3094C44.896 17.82 45.2534 17.532 45.3814 16.956L45.9414 14.22L47.3334 14.492L46.8854 16.748C46.8747 16.7907 46.8694 16.86 46.8694 16.956C46.8694 17.212 46.9547 17.42 47.1254 17.58C47.296 17.74 47.52 17.82 47.7974 17.82H48.8854C48.9494 17.82 49.0027 17.8467 49.0454 17.9C49.088 17.9427 49.1094 17.996 49.1094 18.06V19.276C49.1094 19.34 49.088 19.3933 49.0454 19.436C49.0027 19.4787 48.9494 19.5 48.8854 19.5H47.7814C47.3974 19.5 47.0507 19.4147 46.7414 19.244C46.4427 19.0733 46.2187 18.828 46.0694 18.508C45.8987 18.8173 45.6427 19.0627 45.3014 19.244C44.96 19.4147 44.6027 19.5 44.2294 19.5H43.1094ZM45.4294 10.972H47.0134V12.556H45.4294V10.972ZM48.8906 19.5C48.7413 19.5 48.6666 19.4253 48.6666 19.276V18.044C48.6666 17.9907 48.6933 17.9427 48.7466 17.9C48.7893 17.8467 48.8373 17.82 48.8906 17.82H51.6426C52.1973 17.82 52.672 17.756 53.0666 17.628C53.4613 17.5 53.856 17.2387 54.2506 16.844L55.2586 15.868C55.3013 15.8253 55.376 15.756 55.4826 15.66C55.5893 15.564 55.6693 15.5 55.7226 15.468L52.0746 14.38C52.0426 14.3693 51.9893 14.364 51.9146 14.364C51.7866 14.364 51.6693 14.4067 51.5626 14.492C51.456 14.5667 51.3866 14.6627 51.3546 14.78L50.8586 16.188L49.6266 15.852L50.0266 14.492C50.1546 14.0333 50.4053 13.6707 50.7786 13.404C51.1626 13.1267 51.584 12.988 52.0426 12.988C52.2773 12.988 52.4746 13.0147 52.6346 13.068L58.9066 14.956L58.5066 16.284L57.7866 16.076C57.5733 16.0227 57.424 15.996 57.3386 15.996C57.2106 15.996 57.088 16.028 56.9706 16.092C56.864 16.156 56.7146 16.2787 56.5226 16.46L54.6826 18.252C54.2666 18.668 53.7706 18.9827 53.1946 19.196C52.6186 19.3987 52.016 19.5 51.3866 19.5H48.8906ZM53.2746 21.404H54.8586L54.8746 23.02H53.2746V21.404ZM65.18 19.5C64.7 19.5 64.2573 19.3827 63.852 19.148C63.4467 18.9133 63.1267 18.5987 62.892 18.204C62.6573 17.7987 62.54 17.356 62.54 16.876V8.748H63.98V16.844C63.98 17.1213 64.0707 17.356 64.252 17.548C64.4333 17.7293 64.6573 17.82 64.924 17.82H65.724C65.788 17.82 65.8413 17.8467 65.884 17.9C65.9267 17.9427 65.948 17.996 65.948 18.06V19.276C65.948 19.4253 65.8733 19.5 65.724 19.5H65.18ZM65.7188 19.5C65.5694 19.5 65.4947 19.4253 65.4947 19.276V18.044C65.4947 17.8947 65.5694 17.82 65.7188 17.82H66.3428C66.6094 17.82 66.8334 17.724 67.0148 17.532C67.1961 17.34 67.2868 17.1107 67.2868 16.844V14.284H68.7268V16.14C68.7268 16.3533 68.7588 16.54 68.8228 16.7C68.8974 16.86 68.9828 16.972 69.0788 17.036L71.3988 14.524C71.7294 14.1827 72.1081 13.916 72.5348 13.724C72.9721 13.532 73.4308 13.436 73.9108 13.436H74.9028C75.3401 13.436 75.7454 13.548 76.1188 13.772C76.4921 13.9853 76.7854 14.2787 76.9988 14.652C77.2228 15.0253 77.3348 15.436 77.3348 15.884V17.004C77.3348 17.4413 77.2174 17.852 76.9828 18.236C76.7481 18.62 76.4334 18.9293 76.0388 19.164C75.6441 19.388 75.2174 19.5 74.7587 19.5H70.7108C70.2628 19.5 69.7774 19.3933 69.2548 19.18C68.7321 18.956 68.3481 18.604 68.1028 18.124C67.9534 18.5613 67.6814 18.9027 67.2868 19.148C66.9028 19.3827 66.4974 19.5 66.0708 19.5H65.7188ZM75.0148 17.82C75.2601 17.82 75.4681 17.7293 75.6388 17.548C75.8201 17.3667 75.9108 17.148 75.9108 16.892V15.98C75.9108 15.7133 75.8201 15.4947 75.6388 15.324C75.4574 15.1427 75.2334 15.052 74.9668 15.052H73.6868C73.0681 15.052 72.5561 15.276 72.1508 15.724L70.2628 17.772C70.4228 17.804 70.5828 17.82 70.7428 17.82H75.0148ZM73.4948 10.172H75.0788V11.756H73.4948V10.172ZM75.985 22.172L78.049 21.5C78.5183 21.3293 78.881 21.0733 79.137 20.732C79.4037 20.4013 79.537 19.9853 79.537 19.484V14.188H80.977V19.34C80.977 20.172 80.7477 20.892 80.289 21.5C79.8303 22.1187 79.217 22.5613 78.449 22.828L76.417 23.532L75.985 22.172Z" fill="#130505"/>
<path opacity="0.4" d="M3.29 42.348C3.64467 42.348 3.976 42.4413 4.284 42.628C4.592 42.8053 4.83467 43.048 5.012 43.356C5.19867 43.664 5.292 44 5.292 44.364V44.798C5.292 45.1527 5.19867 45.484 5.012 45.792C4.83467 46.0907 4.592 46.3287 4.284 46.506C3.98533 46.6833 3.654 46.772 3.29 46.772H2.898C2.534 46.772 2.198 46.6833 1.89 46.506C1.59133 46.3287 1.34867 46.0907 1.162 45.792C0.984667 45.484 0.896 45.1527 0.896 44.798V44.364C0.896 44 0.984667 43.664 1.162 43.356C1.33933 43.048 1.582 42.8053 1.89 42.628C2.198 42.4413 2.534 42.348 2.898 42.348H3.29ZM4.298 44.336C4.298 44.0747 4.214 43.86 4.046 43.692C3.878 43.524 3.66333 43.44 3.402 43.44H2.8C2.53867 43.44 2.31933 43.524 2.142 43.692C1.974 43.86 1.89 44.0747 1.89 44.336V44.784C1.89 45.0267 1.97867 45.2367 2.156 45.414C2.33333 45.582 2.548 45.666 2.8 45.666H3.402C3.66333 45.666 3.878 45.582 4.046 45.414C4.214 45.2367 4.298 45.0267 4.298 44.784V44.336ZM10.957 47.724C10.7983 46.7627 10.6863 45.946 10.621 45.274C10.5556 44.5927 10.5183 43.79 10.509 42.866L11.545 42.32V42.67C11.545 43.5567 11.5823 44.3453 11.657 45.036C11.741 45.7173 11.867 46.5153 12.035 47.43L10.957 47.724ZM8.32497 43.888C7.79297 43.888 7.34497 43.7013 6.98097 43.328C6.6263 42.9547 6.44897 42.4927 6.44897 41.942C6.44897 41.886 6.4583 41.7833 6.47697 41.634L6.79897 39.604C6.8643 39.1653 7.0743 38.806 7.42897 38.526C7.78364 38.2367 8.18964 38.092 8.64697 38.092H9.54297C9.90697 38.092 10.243 38.1807 10.551 38.358C10.859 38.5353 11.1016 38.778 11.279 39.086C11.4563 39.3847 11.545 39.716 11.545 40.08V43.062L10.551 43.762C10.299 43.846 10.0096 43.888 9.68297 43.888H8.32497ZM10.509 42.67V40.08C10.509 39.8373 10.425 39.6367 10.257 39.478C10.0983 39.3193 9.89764 39.24 9.65497 39.24H8.60497C8.39964 39.24 8.2223 39.3007 8.07297 39.422C7.92364 39.5433 7.8303 39.702 7.79297 39.898L7.49897 41.76C7.48964 41.788 7.48497 41.8347 7.48497 41.9C7.48497 42.1053 7.55497 42.2873 7.69497 42.446C7.8443 42.5953 8.02164 42.67 8.22697 42.67H10.509ZM13.9185 43.034C13.9185 42.1473 13.8765 41.368 13.7925 40.696C13.7178 40.0147 13.5965 39.2073 13.4285 38.274L14.5065 37.924C14.6652 38.932 14.7772 39.772 14.8425 40.444C14.9172 41.116 14.9545 41.9187 14.9545 42.852V47.514H13.9185V43.034ZM19.4294 42.796C18.804 42.796 18.356 42.6 18.0854 42.208C17.8147 41.816 17.6187 41.2747 17.4974 40.584L18.0854 40.15C18.1507 40.6447 18.258 41.004 18.4074 41.228C18.566 41.452 18.846 41.564 19.2474 41.564H21.4174V38.232H22.4534V41.13C22.4534 41.6527 22.318 42.0633 22.0474 42.362C21.7767 42.6513 21.38 42.796 20.8574 42.796H19.4294ZM17.1754 43.034C17.1754 42.1473 17.1334 41.368 17.0494 40.696C16.9747 40.0147 16.8534 39.2073 16.6854 38.274L17.7774 37.924C17.936 38.96 18.048 39.8093 18.1134 40.472C18.1787 41.1347 18.2114 41.928 18.2114 42.852V47.514H17.1754V43.034ZM26.7435 42.796C26.1275 42.7867 25.6842 42.586 25.4135 42.194C25.1428 41.802 24.9468 41.2653 24.8255 40.584L25.4135 40.15C25.4788 40.6447 25.5862 41.004 25.7355 41.228C25.8942 41.452 26.1742 41.564 26.5755 41.564H26.7715C27.0702 41.564 27.3082 41.4893 27.4855 41.34C27.6628 41.1813 27.7795 40.9713 27.8355 40.71L28.2835 38.428L29.3195 38.624L28.9555 40.5C28.9462 40.5467 28.9415 40.6073 28.9415 40.682C28.9415 40.934 29.0255 41.144 29.1935 41.312C29.3708 41.48 29.5948 41.564 29.8655 41.564H31.1255V38.232H32.1475V41.13C32.1475 41.6527 32.0168 42.0633 31.7555 42.362C31.4942 42.6513 31.1022 42.796 30.5795 42.796H29.8655C29.1375 42.796 28.6335 42.488 28.3535 41.872C28.1855 42.1707 27.9568 42.3993 27.6675 42.558C27.3875 42.7167 27.0795 42.796 26.7435 42.796ZM24.5035 43.034C24.5035 42.1473 24.4615 41.368 24.3775 40.696C24.3028 40.0147 24.1815 39.2073 24.0135 38.274L25.1055 37.924C25.2642 38.96 25.3762 39.8093 25.4415 40.472C25.5068 41.1347 25.5395 41.928 25.5395 42.852V47.514H24.5035V43.034ZM36.5065 43.636C35.8812 43.636 35.4239 43.4353 35.1345 43.034C34.8545 42.6233 34.6725 42.0867 34.5885 41.424L35.1765 40.99C35.2232 41.4753 35.3259 41.8347 35.4845 42.068C35.6525 42.292 35.9372 42.404 36.3385 42.404C37.2625 42.404 38.7885 42.292 40.9165 42.068L41.0425 43.174C40.0252 43.314 39.1432 43.426 38.3965 43.51C37.6499 43.594 37.0199 43.636 36.5065 43.636ZM37.0245 42.432C36.9499 42.3013 36.8892 42.1753 36.8425 42.054C36.8052 41.9327 36.7725 41.7787 36.7445 41.592L36.5205 40.22C36.5112 40.1453 36.5065 40.0427 36.5065 39.912C36.5065 39.3613 36.6839 38.9087 37.0385 38.554C37.4025 38.19 37.8505 38.008 38.3825 38.008H40.4685V39.142H38.2985C38.0559 39.142 37.8599 39.2353 37.7105 39.422C37.5612 39.6087 37.5052 39.828 37.5425 40.08L37.9205 42.39L37.0245 42.432ZM34.2105 43.034C34.2105 42.1473 34.1685 41.368 34.0845 40.696C34.0099 40.0147 33.8885 39.2073 33.7205 38.274L34.8125 37.924C34.9712 38.96 35.0832 39.8093 35.1485 40.472C35.2139 41.1347 35.2465 41.928 35.2465 42.852V47.514H34.2105V43.034ZM48.0295 47.598C47.3668 47.598 46.8955 47.402 46.6155 47.01C46.3448 46.618 46.2095 46.1093 46.2095 45.484C46.2095 45.2413 46.2235 45.008 46.2515 44.784L46.7275 44.546C46.6902 44.7607 46.6715 44.9707 46.6715 45.176C46.6715 45.568 46.7602 45.8573 46.9375 46.044C47.1148 46.2213 47.3902 46.31 47.7635 46.31H48.0015C48.3748 46.31 48.6595 46.1793 48.8555 45.918C49.0515 45.6473 49.1495 45.2973 49.1495 44.868C49.1495 44.028 48.7715 43.09 48.0155 42.054C47.2688 41.0087 46.1955 39.7767 44.7955 38.358L45.5235 37.546C45.8875 37.938 46.0695 38.134 46.0695 38.134C46.9375 39.0393 47.6422 39.8233 48.1835 40.486C48.7342 41.1393 49.2008 41.8533 49.5835 42.628C49.9755 43.3933 50.1715 44.1633 50.1715 44.938C50.1715 45.6753 49.9895 46.3053 49.6255 46.828C49.2708 47.3413 48.7388 47.598 48.0295 47.598ZM44.3755 47.598C43.6755 47.598 43.1482 47.36 42.7935 46.884C42.4388 46.408 42.2615 45.82 42.2615 45.12C42.2615 44.1213 42.5835 43.0853 43.2275 42.012C43.4795 41.6013 43.7688 41.1813 44.0955 40.752C44.4315 40.3227 44.8468 39.8093 45.3415 39.212C45.5095 38.9973 45.6868 38.778 45.8735 38.554L46.6295 39.142L46.2655 39.576C45.6402 40.3227 45.1782 40.8827 44.8795 41.256C44.5902 41.62 44.3428 41.97 44.1375 42.306C43.5402 43.2487 43.2415 44.084 43.2415 44.812C43.2415 45.2507 43.3348 45.61 43.5215 45.89C43.7175 46.17 44.0068 46.31 44.3895 46.31H44.5155C44.8608 46.31 45.1268 46.2353 45.3135 46.086C45.5002 45.9273 45.6355 45.638 45.7195 45.218L45.9715 43.776L46.8535 43.944L46.6295 45.176C46.5082 45.9227 46.2842 46.5153 45.9575 46.954C45.6402 47.3833 45.1128 47.598 44.3755 47.598ZM51.7 47.192L54.318 43.496C54.8687 42.7307 55.3727 42.0867 55.83 41.564C56.2874 41.032 56.8567 40.4207 57.538 39.73L58.28 40.514C57.6267 41.1487 57.0667 41.7273 56.6 42.25C56.1427 42.7727 55.6527 43.4027 55.13 44.14L52.554 47.78L51.7 47.192ZM54.346 43.496C54.2807 43.4587 54.1734 43.412 54.024 43.356C53.884 43.2907 53.7394 43.188 53.59 43.048L52.386 42.012C52.1527 41.8067 51.9754 41.578 51.854 41.326C51.7327 41.0647 51.672 40.7987 51.672 40.528C51.672 40.2573 51.728 40.0007 51.84 39.758C51.9614 39.506 52.1294 39.2867 52.344 39.1L53.912 37.714L54.612 38.484L52.988 39.912C52.8014 40.0707 52.708 40.2667 52.708 40.5C52.708 40.7427 52.806 40.948 53.002 41.116L54.92 42.74L54.346 43.496ZM60.8227 43.006C60.5987 42.222 60.3653 41.5453 60.1227 40.976C59.8893 40.4067 59.5813 39.7393 59.1987 38.974L58.9467 38.47L59.9267 37.854L60.2487 38.526C60.6313 39.3473 60.9347 40.038 61.1587 40.598C61.3827 41.1487 61.588 41.7787 61.7747 42.488L63.0907 47.458L62.1247 47.64L60.8227 43.006ZM62.3067 47.626V47.122L63.6087 42.516C63.8327 41.732 64.066 41.046 64.3087 40.458C64.5513 39.8607 64.8407 39.2073 65.1767 38.498C65.2047 38.4233 65.298 38.218 65.4567 37.882L66.3387 38.47C65.8533 39.4313 65.48 40.22 65.2187 40.836C64.9573 41.452 64.7007 42.1753 64.4487 43.006L63.0627 47.57L62.3067 47.626ZM72.4744 42.684C72.6891 43.4773 72.9131 44.154 73.1464 44.714C73.3891 45.2647 73.7204 45.9647 74.1404 46.814L74.3504 47.22L73.3704 47.836C73.3331 47.7707 73.2957 47.696 73.2584 47.612C73.2211 47.528 73.1791 47.4393 73.1324 47.346C72.7031 46.4313 72.3764 45.6987 72.1524 45.148C71.9284 44.5973 71.7184 43.9487 71.5224 43.202L70.2064 38.232L71.1724 38.05L72.4744 42.684ZM70.9904 38.064V38.568L69.6744 43.174C69.4597 43.9487 69.2357 44.616 69.0024 45.176C68.7784 45.736 68.4797 46.4173 68.1064 47.22L67.8264 47.808L66.9584 47.22C67.4624 46.2027 67.8404 45.4 68.0924 44.812C68.3444 44.2147 68.5964 43.5053 68.8484 42.684L70.2204 38.12L70.9904 38.064ZM79.5761 47.724C79.4174 46.7627 79.3054 45.946 79.2401 45.274C79.1748 44.5927 79.1374 43.79 79.1281 42.866L80.1641 42.32V42.67C80.1641 43.5567 80.2014 44.3453 80.2761 45.036C80.3601 45.7173 80.4861 46.5153 80.6541 47.43L79.5761 47.724ZM76.9441 43.888C76.4121 43.888 75.9641 43.7013 75.6001 43.328C75.2454 42.9547 75.0681 42.4927 75.0681 41.942C75.0681 41.886 75.0774 41.7833 75.0961 41.634L75.4181 39.604C75.4834 39.1653 75.6934 38.806 76.0481 38.526C76.4028 38.2367 76.8088 38.092 77.2661 38.092H78.1621C78.5261 38.092 78.8621 38.1807 79.1701 38.358C79.4781 38.5353 79.7208 38.778 79.8981 39.086C80.0754 39.3847 80.1641 39.716 80.1641 40.08V43.062L79.1701 43.762C78.9181 43.846 78.6288 43.888 78.3021 43.888H76.9441ZM79.1281 42.67V40.08C79.1281 39.8373 79.0441 39.6367 78.8761 39.478C78.7174 39.3193 78.5168 39.24 78.2741 39.24H77.2241C77.0188 39.24 76.8414 39.3007 76.6921 39.422C76.5428 39.5433 76.4494 39.702 76.4121 39.898L76.1181 41.76C76.1088 41.788 76.1041 41.8347 76.1041 41.9C76.1041 42.1053 76.1741 42.2873 76.3141 42.446C76.4634 42.5953 76.6408 42.67 76.8461 42.67H79.1281Z" fill="#130505"/>
<rect x="94" width="56" height="56" rx="12" fill="white"/>
<circle cx="4.66667" cy="4.66667" r="4.66667" transform="matrix(-1 0 0 1 126.668 17.5)" stroke="#171717" stroke-width="1.75"/>
<path d="M113.832 33.7565C113.832 32.7527 114.463 31.8573 115.408 31.5197C119.67 29.9977 124.327 29.9977 128.589 31.5197C129.534 31.8573 130.165 32.7527 130.165 33.7565V35.2912C130.165 36.6766 128.938 37.7407 127.567 37.5448L126.453 37.3857C123.499 36.9636 120.499 36.9636 117.544 37.3857L116.43 37.5448C115.059 37.7407 113.832 36.6766 113.832 35.2912V33.7565Z" stroke="#171717" stroke-width="1.75"/>
</svg>
